<svg xmlns="http://www.w3.org/2000/svg" width="15" height="15" viewBox="0 0 15 15" fill="none">
  <g clip-path="url(#clip0_76_3096)">
    <path d="M13.9376 12.9654L10.6958 9.72363C11.4993 8.74392 11.9837 7.48903 11.9837 6.1213C11.9837 2.98405 9.43811 0.438477 6.30086 0.438477C3.16086 0.438477 0.618042 2.98405 0.618042 6.1213C0.618042 9.25854 3.16086 11.8041 6.30086 11.8041C7.66859 11.8041 8.92074 11.3225 9.90044 10.5189L13.1423 13.758C13.3624 13.9782 13.7174 13.9782 13.9376 13.758C14.1577 13.5406 14.1577 13.1829 13.9376 12.9654ZM6.30086 10.6731C3.78831 10.6731 1.74635 8.63109 1.74635 6.1213C1.74635 3.6115 3.78831 1.56678 6.30086 1.56678C8.81066 1.56678 10.8554 3.6115 10.8554 6.1213C10.8554 8.63109 8.81066 10.6731 6.30086 10.6731Z" fill="#849A8E"/>
  </g>
  <defs>
    <clipPath id="clip0_76_3096">
      <rect width="14.0901" height="14.0901" fill="white" transform="translate(0.315308 0.135742)"/>
    </clipPath>
  </defs>
</svg>