<svg width="20" height="24" viewBox="0 0 20 24" fill="none" xmlns="http://www.w3.org/2000/svg">
<path d="M7.35384 7.19997H7.33464L7.27704 7.18077C7.71864 6.71997 7.96824 6.10557 7.96824 5.43357C7.96824 4.03197 6.83544 2.89917 5.43384 2.89917C4.03224 2.89917 2.89944 4.03197 2.89944 5.43357C2.89944 6.10557 3.16824 6.71997 3.59064 7.18077L3.49464 7.19997C2.43864 7.58397 1.70904 8.50557 1.57464 9.61917L1.34424 11.8848C1.34424 11.9808 1.36344 12.0768 1.42104 12.1344C1.47864 12.2112 1.57464 12.2496 1.67064 12.2496H3.51384L4.01304 11.5968H2.03544L2.22744 9.69597C2.32344 8.83197 2.89944 8.12157 3.70584 7.81437L4.24344 7.66077C4.58904 7.85277 5.01144 7.94877 5.43384 7.94877C5.85624 7.94877 6.25944 7.83357 6.62424 7.66077L7.14264 7.81437C7.96824 8.12157 8.52504 8.83197 8.64024 9.69597L8.83224 11.5968H6.85464L7.35384 12.2496H9.19704C9.29304 12.2496 9.36984 12.2112 9.44664 12.1344C9.50424 12.0576 9.54264 11.9808 9.52344 11.8848L9.29304 9.61917C9.15864 8.50557 8.40984 7.56477 7.35384 7.19997ZM3.55224 5.41437C3.55224 4.37757 4.39704 3.53277 5.43384 3.53277C6.47064 3.53277 7.31544 4.37757 7.31544 5.41437C7.31544 6.45117 6.47064 7.29597 5.43384 7.29597C4.39704 7.29597 3.55224 6.45117 3.55224 5.41437Z" fill="#353535"/>
<path d="M17.7025 18.4897C17.5681 17.3761 16.8385 16.4353 15.7825 16.0705H15.7633L15.6865 16.0321C16.1281 15.5713 16.3969 14.9569 16.3969 14.2849C16.3969 12.8833 15.2641 11.7505 13.8625 11.7505C12.4609 11.7505 11.3281 12.8833 11.3281 14.2849C11.3281 14.9569 11.5969 15.5713 12.0385 16.0321L11.9425 16.0513C10.8865 16.4353 10.1377 17.3569 10.0225 18.4705L9.7921 20.7361C9.7729 20.8321 9.8113 20.9281 9.8689 20.9857C9.9265 21.0625 10.0225 21.1009 10.1185 21.1009H17.6449C17.7409 21.1009 17.8177 21.0625 17.8945 20.9857C17.9521 20.9089 17.9905 20.8321 17.9713 20.7361L17.7025 18.4897ZM13.8433 12.4033C14.8801 12.4033 15.7249 13.2481 15.7249 14.2849C15.7249 15.3217 14.8801 16.1665 13.8433 16.1665C12.8065 16.1665 11.9617 15.3217 11.9617 14.2849C11.9617 13.2481 12.8065 12.4033 13.8433 12.4033ZM10.4449 20.4673L10.6369 18.5665C10.7329 17.7025 11.3089 16.9921 12.1153 16.7041L12.6529 16.5505C12.9985 16.7425 13.4017 16.8385 13.8433 16.8385C14.2657 16.8385 14.6689 16.7233 15.0337 16.5505L15.5713 16.7041C16.3969 16.9921 16.9537 17.7217 17.0689 18.5857L17.2609 20.4865H10.4449V20.4673Z" fill="#353535"/>
<path d="M5.70249 11.1359C5.58729 10.9631 5.29929 10.9631 5.16489 11.1359L1.97769 15.4175C1.90089 15.5135 1.90089 15.6479 1.93929 15.7631C1.99689 15.8783 2.11209 15.9359 2.22729 15.9359H3.87849C4.16649 18.4319 6.10569 20.4287 8.35209 20.4671C8.48649 20.4671 8.60169 20.3903 8.65929 20.2751C8.71689 20.1599 8.69769 20.0255 8.60169 19.9295C7.73769 18.9311 7.16169 17.4719 7.02729 15.9551H8.60169C8.71689 15.9551 8.83209 15.8783 8.88969 15.7823C8.94729 15.6671 8.92809 15.5327 8.85129 15.4367L5.70249 11.1359ZM6.68168 15.2831C6.58569 15.2831 6.50889 15.3215 6.45129 15.3791C6.39369 15.4367 6.35529 15.5327 6.35529 15.6287C6.41289 17.1071 6.87369 18.5855 7.62249 19.7183C5.95209 19.3151 4.60809 17.6063 4.51209 15.6095C4.49289 15.4367 4.35849 15.3023 4.18569 15.3023H2.89929L5.43369 11.9039L7.96809 15.3023H6.68168V15.2831Z" fill="#353535"/>
<path d="M13.8431 10.7327C16.0127 10.7327 17.7599 8.96628 17.7599 6.81588C17.7599 4.66548 16.0127 2.87988 13.8431 2.87988C11.6735 2.87988 9.92627 4.64628 9.92627 6.79668C9.92627 8.94708 11.6735 10.7327 13.8431 10.7327ZM13.8431 3.53268C15.6479 3.53268 17.1071 4.99188 17.1071 6.79668C17.1071 8.60148 15.6479 10.0607 13.8431 10.0607C12.0383 10.0607 10.5791 8.60148 10.5791 6.79668C10.5791 4.99188 12.0383 3.53268 13.8431 3.53268Z" fill="#353535"/>
<path d="M13.0752 8.17911C13.1328 8.23671 13.2288 8.27511 13.3056 8.27511C13.4016 8.27511 13.4784 8.23671 13.536 8.17911L15.7248 5.99031C15.8592 5.85591 15.8592 5.64471 15.7248 5.52951C15.5904 5.39511 15.3792 5.39511 15.264 5.52951L13.3248 7.48791L12.4224 6.58551C12.288 6.45111 12.0768 6.45111 11.9616 6.58551C11.8272 6.71991 11.8272 6.93111 11.9616 7.04631L13.0752 8.17911Z" fill="#353535"/>
</svg>
