<svg xmlns="http://www.w3.org/2000/svg" width="25" height="21" viewBox="0 0 25 21" fill="none">
  <path d="M16.3581 6.2793C14.8165 6.2793 13.5381 7.5577 13.5381 9.0993C13.5381 10.6409 14.7789 11.9193 16.3581 11.9193C17.8997 11.9193 19.1781 10.6409 19.1781 9.0993C19.1781 7.5577 17.9373 6.2793 16.3581 6.2793ZM16.3581 10.4153C15.6437 10.4153 15.0421 9.8137 15.0421 9.0993C15.0421 8.3849 15.6061 7.7833 16.3581 7.7833C17.0725 7.7833 17.6741 8.3849 17.6741 9.0993C17.6741 9.8513 17.0725 10.4153 16.3581 10.4153Z" fill="white"/>
  <path d="M7.70868 6.2793C6.16707 6.2793 4.88867 7.5577 4.88867 9.0993C4.88867 10.6409 6.12947 11.9193 7.70868 11.9193C9.25028 11.9193 10.5287 10.6409 10.5287 9.0993C10.5287 7.5577 9.25028 6.2793 7.70868 6.2793ZM7.70868 10.4153C6.99427 10.4153 6.39267 9.8137 6.39267 9.0993C6.39267 8.3849 6.95667 7.7833 7.70868 7.7833C8.42308 7.7833 9.02468 8.3849 9.02468 9.0993C8.98708 9.8513 8.42308 10.4153 7.70868 10.4153Z" fill="white"/>
  <path d="M16.8837 2.1056H16.0189C15.9061 0.940001 14.8909 0 13.6877 0H10.3413C9.1381 0 8.1229 0.902401 8.0101 2.1056H6.95729C5.03969 2.1056 3.27249 2.8952 1.99409 4.17361C0.753287 5.45201 -0.0363138 7.21921 0.00128627 9.17441C0.0388863 13.0472 3.31009 16.0928 7.1829 16.0928H8.0477C8.2733 16.0928 8.4237 16.2808 8.4237 16.5064L8.3109 20.5672C8.3109 20.868 8.6117 21.056 8.8373 20.9056L15.5301 16.1304C15.5677 16.0928 15.6429 16.0928 15.6805 16.0928H17.0341C18.9517 16.0928 20.7189 15.3032 21.9973 14.0248C23.2757 12.7464 24.0653 10.9792 24.0653 9.02401C24.0277 5.18881 20.7565 2.1056 16.8837 2.1056ZM16.9213 13.724H7.14529C4.58849 13.724 2.52049 11.656 2.52049 9.09921C2.52049 6.54241 4.58849 4.47441 7.14529 4.47441H16.9213C19.4781 4.47441 21.5461 6.54241 21.5461 9.09921C21.5461 11.656 19.4781 13.724 16.9213 13.724Z" fill="white"/>
</svg>