<svg width="14" height="14" viewBox="0 0 14 14" fill="none" xmlns="http://www.w3.org/2000/svg">
<g clip-path="url(#clip0_486_3175)">
<path d="M3.25 6C3.61114 6 3.96873 5.92887 4.30238 5.79067C4.63602 5.65247 4.93918 5.4499 5.19454 5.19454C5.4499 4.93918 5.65247 4.63602 5.79067 4.30238C5.92887 3.96873 6 3.61114 6 3.25C6 2.88886 5.92887 2.53127 5.79067 2.19762C5.65247 1.86398 5.4499 1.56082 5.19454 1.30546C4.93918 1.0501 4.63602 0.847532 4.30238 0.709331C3.96873 0.571131 3.61114 0.5 3.25 0.5C2.52065 0.5 1.82118 0.789731 1.30546 1.30546C0.789731 1.82118 0.5 2.52065 0.5 3.25C0.5 3.97935 0.789731 4.67882 1.30546 5.19454C1.82118 5.71027 2.52065 6 3.25 6ZM10.75 6C11.1111 6 11.4687 5.92887 11.8024 5.79067C12.136 5.65247 12.4392 5.4499 12.6945 5.19454C12.9499 4.93918 13.1525 4.63602 13.2907 4.30238C13.4289 3.96873 13.5 3.61114 13.5 3.25C13.5 2.88886 13.4289 2.53127 13.2907 2.19762C13.1525 1.86398 12.9499 1.56082 12.6945 1.30546C12.4392 1.0501 12.136 0.847532 11.8024 0.709331C11.4687 0.571131 11.1111 0.5 10.75 0.5C10.0207 0.5 9.32118 0.789731 8.80546 1.30546C8.28973 1.82118 8 2.52065 8 3.25C8 3.97935 8.28973 4.67882 8.80546 5.19454C9.32118 5.71027 10.0207 6 10.75 6ZM3.25 13.5C3.97935 13.5 4.67882 13.2103 5.19454 12.6945C5.71027 12.1788 6 11.4793 6 10.75C6 10.0207 5.71027 9.32118 5.19454 8.80546C4.67882 8.28973 3.97935 8 3.25 8C2.52065 8 1.82118 8.28973 1.30546 8.80546C0.789731 9.32118 0.5 10.0207 0.5 10.75C0.5 11.4793 0.789731 12.1788 1.30546 12.6945C1.82118 13.2103 2.52065 13.5 3.25 13.5ZM10.75 13.5C11.4793 13.5 12.1788 13.2103 12.6945 12.6945C13.2103 12.1788 13.5 11.4793 13.5 10.75C13.5 10.0207 13.2103 9.32118 12.6945 8.80546C12.1788 8.28973 11.4793 8 10.75 8C10.0207 8 9.32118 8.28973 8.80546 8.80546C8.28973 9.32118 8 10.0207 8 10.75C8 11.4793 8.28973 12.1788 8.80546 12.6945C9.32118 13.2103 10.0207 13.5 10.75 13.5Z" stroke="#353535" stroke-linecap="round" stroke-linejoin="round"/>
</g>
<defs>
<clipPath id="clip0_486_3175">
<rect width="14" height="14" fill="white"/>
</clipPath>
</defs>
</svg>
