<svg width="20" height="20" viewBox="0 0 20 20" fill="none" xmlns="http://www.w3.org/2000/svg">
<path d="M18.7491 10L19.8531 8.092C19.9858 7.86244 20.0219 7.58958 19.9535 7.33343C19.885 7.07727 19.7176 6.85878 19.4881 6.726L17.5781 5.622V3.422C17.5781 3.15678 17.4728 2.90243 17.2852 2.71489C17.0977 2.52735 16.8433 2.422 16.5781 2.422H14.3791L13.2761 0.512996C13.1429 0.283913 12.9249 0.116502 12.6691 0.0469964C12.5423 0.0126123 12.4099 0.00374622 12.2796 0.020912C12.1493 0.0380778 12.0237 0.0809341 11.9101 0.146997L10.0001 1.251L8.09013 0.145996C7.86045 0.0133941 7.58751 -0.0225405 7.33133 0.0460973C7.07516 0.114735 6.85674 0.282324 6.72413 0.511997L5.62013 2.422H3.42113C3.15592 2.422 2.90156 2.52735 2.71403 2.71489C2.52649 2.90243 2.42113 3.15678 2.42113 3.422V5.621L0.511133 6.725C0.397165 6.79055 0.297273 6.87798 0.217197 6.98226C0.137121 7.08654 0.0784389 7.20561 0.0445217 7.33264C0.0106046 7.45966 0.00212117 7.59214 0.0195588 7.72246C0.0369965 7.85277 0.0800115 7.97836 0.146133 8.092L1.25013 10L0.146133 11.908C0.0141214 12.1378 -0.0216953 12.4104 0.0464911 12.6665C0.114678 12.9226 0.281337 13.1413 0.510133 13.275L2.42013 14.379V16.578C2.42013 16.8432 2.52549 17.0976 2.71303 17.2851C2.90056 17.4726 3.15492 17.578 3.42013 17.578H5.62013L6.72413 19.488C6.81266 19.6393 6.93907 19.765 7.09091 19.8527C7.24275 19.9404 7.4148 19.987 7.59013 19.988C7.76413 19.988 7.93713 19.942 8.09113 19.853L9.99913 18.749L11.9091 19.853C12.1388 19.9854 12.4115 20.0213 12.6676 19.9529C12.9237 19.8845 13.1422 19.7173 13.2751 19.488L14.3781 17.578H16.5771C16.8423 17.578 17.0967 17.4726 17.2842 17.2851C17.4718 17.0976 17.5771 16.8432 17.5771 16.578V14.379L19.4871 13.275C19.6009 13.2092 19.7006 13.1217 19.7805 13.0174C19.8605 12.9131 19.919 12.7941 19.9529 12.6671C19.9868 12.5402 19.9954 12.4078 19.9781 12.2775C19.9608 12.1473 19.918 12.0217 19.8521 11.908L18.7491 10ZM7.49913 4.99C7.89709 4.99013 8.27869 5.14834 8.56 5.42984C8.8413 5.71133 8.99926 6.09304 8.99913 6.491C8.999 6.88895 8.84078 7.27056 8.55929 7.55186C8.2778 7.83317 7.89609 7.99113 7.49813 7.991C7.10018 7.99086 6.71857 7.83265 6.43727 7.55116C6.15596 7.26966 5.998 6.88795 5.99813 6.49C5.99827 6.09204 6.15648 5.71043 6.43797 5.42913C6.71946 5.14783 7.10117 4.98986 7.49913 4.99ZM7.79913 14.59L6.19913 13.391L12.1991 5.391L13.7991 6.59L7.79913 14.59ZM12.4991 14.99C12.3021 14.9899 12.107 14.9511 11.925 14.8756C11.7429 14.8001 11.5776 14.6895 11.4383 14.5502C11.299 14.4108 11.1885 14.2453 11.1132 14.0633C11.0378 13.8812 10.9991 13.686 10.9991 13.489C10.9992 13.2919 11.0381 13.0968 11.1135 12.9148C11.189 12.7328 11.2996 12.5674 11.439 12.4281C11.5784 12.2888 11.7438 12.1784 11.9259 12.103C12.108 12.0277 12.3031 11.9889 12.5001 11.989C12.8981 11.9891 13.2797 12.1473 13.561 12.4288C13.8423 12.7103 14.0003 13.092 14.0001 13.49C14 13.888 13.8418 14.2696 13.5603 14.5509C13.2788 14.8322 12.8971 14.9901 12.4991 14.99Z" fill="black"/>
</svg>
