<svg width="34" height="34" viewBox="0 0 34 34" fill="none" xmlns="http://www.w3.org/2000/svg">
<circle cx="17" cy="17" r="16.66" fill="#E8E8E8" stroke="#D7D7D7" stroke-width="0.68"/>
<path d="M13.2831 18.5149C12.0718 20.7143 11.4502 23.1846 11.4821 25.7028C13.6337 24.4118 15.4027 22.579 16.614 20.3796L20.4868 13.399L17.2196 11.5024L13.2831 18.5149Z" fill="#C3C3C3"/>
<path d="M11.4811 26.1809C11.4014 26.1809 11.3217 26.1649 11.242 26.1171C11.0986 26.0374 11.0029 25.878 11.0029 25.7027C10.9551 23.1209 11.6086 20.5549 12.8517 18.2759L16.7245 11.2952C16.852 11.0721 17.1389 10.9765 17.3779 11.104C17.6011 11.2315 17.6967 11.5184 17.5692 11.7574L13.6964 18.754C12.6604 20.6187 12.0708 22.6905 11.9751 24.8102C13.7283 23.599 15.1786 22.0052 16.1986 20.1405L19.8483 13.5743L19.0195 13.1121L16.0551 18.4512C15.9276 18.6743 15.6407 18.7699 15.4017 18.6424C15.1786 18.5149 15.0829 18.228 15.2104 17.989L18.3979 12.2355C18.5254 12.0124 18.8123 11.9168 19.0514 12.0443L20.7248 12.9687C20.8364 13.0324 20.9161 13.128 20.9479 13.2555C20.9798 13.383 20.9639 13.5105 20.9001 13.6221L17.0433 20.6027C15.7842 22.8659 13.9514 24.7784 11.7361 26.1012C11.6564 26.1649 11.5608 26.1809 11.4811 26.1809Z" fill="#444B54"/>
<path d="M21.1088 8.29892C20.5509 7.99611 19.8975 7.91642 19.2919 8.09173C18.6703 8.26705 18.1762 8.66548 17.8575 9.2233L17.6184 9.63767C17.5547 9.74923 17.5388 9.87673 17.5706 10.0042C17.6025 10.1317 17.6822 10.2274 17.7937 10.2911L21.1406 12.1399C21.2203 12.1877 21.3 12.2036 21.3797 12.2036C21.555 12.2036 21.7144 12.108 21.7941 11.9645L22.0331 11.5502C22.6866 10.4027 22.2722 8.93642 21.1088 8.29892Z" fill="#276141"/>
</svg>
