<svg width="34" height="34" viewBox="0 0 34 34" fill="none" xmlns="http://www.w3.org/2000/svg">
<circle cx="17" cy="17" r="16.66" fill="#E8E8E8" stroke="#D7D7D7" stroke-width="0.68"/>
<path d="M21.3768 18.3582C21.0803 18.2982 20.7735 18.2666 20.4595 18.2666C17.908 18.2666 15.8396 20.335 15.8396 22.8865C15.8396 23.5796 15.9936 24.2365 16.2675 24.8259C16.25 24.8261 16.2325 24.8261 16.215 24.8262L16.2103 24.8261L16.1981 24.826H16.198H16.198H16.198H16.1979H16.1979H16.1979H16.1979H16.1978H16.1978H16.1978H16.1978H16.1977H16.1977H16.1977H16.1976H16.1976H16.1976H16.1976H16.1975H16.1975H16.1975H16.1974H16.1974H16.1974H16.1974H16.1973H16.1973H16.1973H16.1972H16.1972H16.1972H16.1972H16.1971H16.1971H16.1971H16.197H16.197H16.197H16.197H16.1969H16.1969H16.1969H16.1969H16.1968H16.1968H16.1968H16.1967H16.1967H16.1967H16.1967H16.1966H16.1966H16.1966H16.1965H16.1965H16.1965H16.1965H16.1964H16.1964H16.1964H16.1964H16.1963H16.1963H16.1963H16.1962H16.1962H16.1962H16.1962H16.1961H16.1961H16.1961H16.196H16.196H16.196H16.196H16.1959H16.1959H16.1959H16.1958H16.1958H16.1958H16.1958H16.1957H16.1957H16.1957H16.1957H16.1956H16.1956H16.1956H16.1955H16.1955H16.1955H16.1955H16.1954H16.1954H16.1954H16.1953H16.1953H16.1953H16.1953H16.1952H16.1952H16.1952H16.1952H16.1951H16.1951H16.1951H16.195H16.195H16.195H16.195H16.1949H16.1949H16.1949H16.1948H16.1948H16.1948H16.1948H16.1947H16.1947H16.1947H16.1947H16.1946H16.1946H16.1946H16.1945H16.1945H16.1945H16.1945H16.1944H16.1944H16.1944H16.1943H16.1943H16.1943H16.1943H16.1942H16.1942H16.1942H16.1942H16.1941H16.1941H16.1941H16.194H16.194H16.194H16.194H16.1939H16.1939H16.1939H16.1938H16.1938H16.1938H16.1938H16.1937H16.1937H16.1937H16.1937H16.1936H16.1936H16.1936H16.1935H16.1935H16.1935H16.1935H16.1934H16.1934H16.1934H16.1934H16.1933H16.1933H16.1933H16.1932H16.1932H16.1932H16.1932H16.1931H16.1931H16.1931H16.193H16.193H16.193H16.193H16.1929H16.1929H16.1929H16.1929H16.1928H16.1928H16.1928H16.1927H16.1927H16.1927H16.1927H16.1926H16.1926H16.1926H16.1926H16.1925H16.1925H16.1925H16.1924H16.1924H16.1924H16.1924H16.1923H16.1923H16.1923H16.1922H16.1922H16.1922H16.1922H16.1921H16.1921H16.1921H16.1921H16.192H16.192H16.192H16.1919H16.1919H16.1919H16.1919H16.1918H16.1918H16.1918H16.1918H16.1917H16.1917H16.1917H16.1916H16.1916H16.1916H16.1916H16.1915H16.1915H16.1915H16.1914H16.1914H16.1914H16.1914H16.1913H16.1913H16.1913H16.1913H16.1912H16.1912H16.1912H16.1911H16.1911H16.1911H16.1911H16.191H16.191H16.191H16.191H16.1909H16.1909H16.1909H16.1908H16.1908H16.1908H16.1908H16.1907H16.1907H16.1907H16.1906H16.1906H16.1906H16.1906H16.1905H16.1905H16.1905H16.1905H16.1904H16.1904H16.1904H16.1903H16.1903H16.1903H16.1903H16.1902H16.1902H16.1902H16.1902H16.1901H16.1901H16.1901H16.19H16.19H16.19H16.19H16.1899H16.1899H16.1899H16.1898H16.1898H16.1898H16.1898H16.1897H16.1897H16.1897H16.1897H16.1896H16.1896H16.1896H16.1895H16.1895H16.1895H16.1895H16.1894H16.1894H16.1894H16.1894H16.1893H16.1893H16.1893H16.1892H16.1892H16.1892H16.1892H16.1891H16.1891H16.1891H16.189H16.189H16.189H16.189H16.1889H16.1889H16.1889H16.1889H16.1888H16.1888H16.1888H16.1887H16.1887H16.1887H16.1887H16.1886H16.1886H16.1886H16.1886H16.1885H16.1885H16.1885H16.1884H16.1884H16.1884H16.1884H16.1883H16.1883H16.1883H16.1882H16.1882H16.1882H16.1882H16.1881H16.1881H16.1881H16.1881H16.188H16.188H16.188H16.1879H16.1879H16.1879H16.1879H16.1878H16.1878H16.1878H16.1877H16.1877H16.1877H16.1877H16.1876H16.1876H16.1876H16.1876H16.1875H16.1875H16.1875H16.1874H16.1874H16.1874H16.1874H16.1873H16.1873H16.1873H16.1872H16.1872H16.1872H16.1872H16.1871H16.1871H16.1871H16.1871H16.187H16.187H16.187H16.1869H16.1869H16.1869H16.1869H16.1868H16.1868H16.1868H16.1867H16.1867H16.1867H16.1867H16.1866H16.1866H16.1866H16.1866H16.1865H16.1865H16.1865H16.1864H16.1864H16.1864H16.1864H16.1863H16.1863H16.1863H16.1862H16.1862H16.1862H16.1862H16.1861H16.1861H16.1861H16.1861H16.186H16.186H16.186H16.1859H16.1859H16.1859H16.1859H16.1858H16.1858H16.1858H16.1857H16.1857H16.1857H16.1857H16.1856H16.1856H16.1856H16.1856H16.1855H16.1855H16.1855L16.1854 24.826L16.1854 24.826H16.1854H16.1854H16.1853H16.1853H16.1853H16.1852H16.1852H16.1852H16.1852H16.1851H16.1851H16.1851H16.185H16.185H16.185H16.185H16.1849H16.1849H16.1849H16.1849H16.1848C15.3797 24.8234 14.5731 24.7757 13.7675 24.6864C13.7675 24.6864 13.7675 24.6864 13.7675 24.6864L21.3768 18.3582ZM21.3768 18.3582C21.1932 17.7252 20.7037 17.2238 20.0704 17.0272L20.0703 17.0271L18.599 16.5701C18.1316 16.425 17.7508 16.1137 17.5101 15.7161L17.3725 15.4888L17.4838 15.2477C17.7705 14.6264 18.0089 13.9851 18.1975 13.3286L18.3147 12.9206L18.7363 12.9701C18.8131 12.9791 18.8826 12.9242 18.8935 12.8522L19.0189 12.0289L19.0189 12.0289C19.0286 11.9649 18.9906 11.899 18.9285 11.8753L18.559 11.7344L18.611 11.3424L18.6214 11.2636L21.3768 18.3582ZM13.8399 11.7573L13.4234 11.8739C13.3523 11.8938 13.31 11.9633 13.3199 12.0292C13.3199 12.0293 13.3199 12.0293 13.3199 12.0294L13.4453 12.8525L13.4453 12.8525C13.456 12.9231 13.5206 12.9752 13.5908 12.973C13.5984 12.9711 13.6071 12.9691 13.6168 12.9672L14.0687 12.8768L14.1955 13.3199C14.3846 13.9804 14.6234 14.6255 14.9117 15.25L15.0232 15.4918L14.8849 15.7193C14.644 16.1157 14.264 16.4255 13.7979 16.5703L13.8399 11.7573ZM13.8399 11.7573L13.7845 11.3283M13.8399 11.7573L13.7845 11.3283M13.7845 11.3283C13.7817 11.3071 13.7786 11.2866 13.7764 11.2723L13.7759 11.2689C13.7734 11.2529 13.7721 11.2437 13.7711 11.236C13.5963 9.78089 14.7324 8.5 16.1981 8.5C17.6747 8.5 18.8141 9.79928 18.6215 11.2632L13.7845 11.3283ZM12.3265 17.0274L13.7979 16.5703L10.809 23.6832C10.4369 23.014 10.4714 22.1203 10.5548 21.1929L10.5548 21.1928C10.6377 20.2696 10.782 19.3528 10.9948 18.454C11.1551 17.7765 11.6615 17.234 12.3265 17.0274C12.3265 17.0274 12.3265 17.0274 12.3265 17.0274ZM13.5556 12.9827C13.5552 12.9829 13.5553 12.9828 13.5559 12.9827L13.5556 12.9827Z" fill="#C3C3C3" stroke="#444B54"/>
<path d="M20.4594 19.9885C18.8588 19.9885 17.5615 21.286 17.5615 22.8864C17.5615 24.487 18.859 25.7843 20.4594 25.7843C22.06 25.7843 23.3573 24.4868 23.3573 22.8864C23.3573 21.286 22.0598 19.9885 20.4594 19.9885ZM22.0162 23.3689H18.9024C18.6361 23.3689 18.4201 23.1529 18.4201 22.8866C18.4201 22.6203 18.6361 22.4044 18.9024 22.4044H22.0162C22.2825 22.4044 22.4985 22.6203 22.4985 22.8866C22.4987 23.1529 22.2827 23.3689 22.0162 23.3689Z" fill="#444B54"/>
</svg>
