<svg width="35" height="35" viewBox="0 0 35 35" fill="none" xmlns="http://www.w3.org/2000/svg">
<circle cx="17.0535" cy="17.0056" r="16.5054" stroke="#656263" stroke-width="1.00033"/>
<path d="M20.2793 16.0307C20.3453 16.3741 20.3924 16.7174 20.3924 17.1629C20.3924 21.0512 17.7439 23.8074 13.7572 23.8074C9.94006 23.8074 6.84863 20.7635 6.84863 17.0051C6.84863 13.2467 9.94006 10.2029 13.7572 10.2029C15.6233 10.2029 17.1784 10.871 18.3848 11.9846L16.5092 13.7571C16.0003 13.2746 15.1049 12.7085 13.7572 12.7085C11.4009 12.7085 9.47819 14.6294 9.47819 17.0051C9.47819 19.3808 11.4009 21.3018 13.7572 21.3018C16.4904 21.3018 17.5177 19.3622 17.6779 18.3693H13.7572V16.0307H20.2793V16.0307ZM26.9505 16.2588V14.2842H24.9355V16.2588H22.9301V18.2428H24.9355V20.2173H26.9505V18.2428H28.9559V16.2588H26.9505Z" fill="#656263"/>
</svg>
