<svg width="35" height="35" viewBox="0 0 35 35" fill="none" xmlns="http://www.w3.org/2000/svg">
<circle cx="17.0212" cy="17.0056" r="16.5054" stroke="#656263" stroke-width="1.00033"/>
<path d="M17.0234 13.5171C15.0931 13.5171 13.5361 15.0744 13.5361 17.0051C13.5361 18.9358 15.0931 20.4931 17.0234 20.4931C18.9536 20.4931 20.5106 18.9358 20.5106 17.0051C20.5106 15.0744 18.9536 13.5171 17.0234 13.5171ZM17.0234 19.2728C15.776 19.2728 14.7562 18.2558 14.7562 17.0051C14.7562 15.7544 15.7729 14.7375 17.0234 14.7375C18.2738 14.7375 19.2905 15.7544 19.2905 17.0051C19.2905 18.2558 18.2708 19.2728 17.0234 19.2728ZM21.4666 13.3744C21.4666 13.8267 21.1024 14.188 20.6533 14.188C20.201 14.188 19.8399 13.8237 19.8399 13.3744C19.8399 12.9251 20.2041 12.5609 20.6533 12.5609C21.1024 12.5609 21.4666 12.9251 21.4666 13.3744ZM23.7763 14.2001C23.7247 13.1103 23.4758 12.145 22.6776 11.3496C21.8824 10.5543 20.9173 10.3053 19.8277 10.2507C18.7048 10.1869 15.3389 10.1869 14.216 10.2507C13.1294 10.3023 12.1643 10.5512 11.3661 11.3466C10.5679 12.1419 10.322 13.1073 10.2674 14.1971C10.2037 15.3203 10.2037 18.6869 10.2674 19.8101C10.319 20.8999 10.5679 21.8653 11.3661 22.6606C12.1643 23.456 13.1264 23.7049 14.216 23.7596C15.3389 23.8233 18.7048 23.8233 19.8277 23.7596C20.9173 23.708 21.8824 23.459 22.6776 22.6606C23.4728 21.8653 23.7217 20.8999 23.7763 19.8101C23.84 18.6869 23.84 15.3233 23.7763 14.2001ZM22.3256 21.0153C22.0888 21.6103 21.6305 22.0687 21.0326 22.3085C20.1373 22.6637 18.0128 22.5817 17.0234 22.5817C16.0339 22.5817 13.9064 22.6606 13.0141 22.3085C12.4192 22.0717 11.9609 21.6133 11.7212 21.0153C11.3661 20.1198 11.448 17.9948 11.448 17.0051C11.448 16.0155 11.3691 13.8875 11.7212 12.995C11.9579 12.4 12.4162 11.9416 13.0141 11.7018C13.9094 11.3466 16.0339 11.4285 17.0234 11.4285C18.0128 11.4285 20.1403 11.3496 21.0326 11.7018C21.6275 11.9385 22.0858 12.3969 22.3256 12.995C22.6806 13.8905 22.5987 16.0155 22.5987 17.0051C22.5987 17.9948 22.6806 20.1228 22.3256 21.0153Z" fill="#656263"/>
</svg>
