<svg width="16" height="4" viewBox="0 0 16 4" fill="none" xmlns="http://www.w3.org/2000/svg">
<path d="M15.4142 0.585786C14.6332 -0.195261 13.3668 -0.195262 12.5858 0.585786C11.8047 1.36683 11.8047 2.63317 12.5858 3.41421C13.3668 4.19526 14.6332 4.19526 15.4142 3.41421C16.1953 2.6332 16.1953 1.36686 15.4142 0.585786Z" fill="#646464"/>
<path d="M9.41421 0.585786C8.63316 -0.195261 7.36682 -0.195262 6.58576 0.585786C5.80471 1.36683 5.80471 2.63317 6.58576 3.41421C7.36682 4.19526 8.63316 4.19526 9.41421 3.41421C10.1953 2.6332 10.1953 1.36686 9.41421 0.585786Z" fill="#646464"/>
<path d="M3.41421 0.585786C2.63316 -0.195261 1.36681 -0.195262 0.58576 0.585786C-0.195293 1.36683 -0.195293 2.63317 0.58576 3.41421C1.36681 4.19526 2.63316 4.19526 3.41421 3.41421C4.19526 2.6332 4.19526 1.36686 3.41421 0.585786Z" fill="#646464"/>
</svg>
