<svg xmlns="http://www.w3.org/2000/svg" width="42" height="42" viewBox="0 0 42 42" fill="none">
  <path d="M21.0003 0.166748C9.54199 0.166748 0.166992 9.54175 0.166992 21.0001C0.166992 32.4584 9.54199 41.8334 21.0003 41.8334C32.4587 41.8334 41.8337 32.4584 41.8337 21.0001C41.8337 9.54175 32.4587 0.166748 21.0003 0.166748ZM28.7087 25.7917C29.542 26.6251 29.542 27.8751 28.7087 28.7084C27.8753 29.5417 26.6253 29.5417 25.792 28.7084L21.0003 23.9167L16.2087 28.7084C15.3753 29.5417 14.1253 29.5417 13.292 28.7084C12.4587 27.8751 12.4587 26.6251 13.292 25.7917L18.0837 21.0001L13.292 16.2084C12.4587 15.3751 12.4587 14.1251 13.292 13.2917C14.1253 12.4584 15.3753 12.4584 16.2087 13.2917L21.0003 18.0834L25.792 13.2917C26.6253 12.4584 27.8753 12.4584 28.7087 13.2917C29.542 14.1251 29.542 15.3751 28.7087 16.2084L23.917 21.0001L28.7087 25.7917Z" fill="#276141"/>
</svg>