<svg xmlns="http://www.w3.org/2000/svg" width="18" height="19" viewBox="0 0 18 19" fill="none">
  <g clip-path="url(#clip0_76_3089)">
    <path d="M8.06642 18.5895C6.54961 18.5895 5.31445 17.3551 5.31445 15.8375C5.31445 15.5337 5.56103 15.2871 5.86485 15.2871C6.16867 15.2871 6.41524 15.5337 6.41524 15.8375C6.41524 16.7483 7.15645 17.4887 8.06642 17.4887C8.9764 17.4887 9.71761 16.7483 9.71761 15.8375C9.71761 15.5337 9.96418 15.2871 10.268 15.2871C10.5718 15.2871 10.8184 15.5337 10.8184 15.8375C10.8184 17.3551 9.58337 18.5895 8.06642 18.5895Z" fill="#FE5C73"/>
    <path d="M14.1208 16.3872H2.01211C1.30396 16.3872 0.727905 15.8111 0.727905 15.103C0.727905 14.7271 0.891572 14.3713 1.17698 14.1269C1.19539 14.1108 1.21514 14.0961 1.2357 14.0828C2.31298 13.1427 2.92948 11.7903 2.92948 10.3622V8.3147C2.92948 5.48211 5.23453 3.17773 8.06645 3.17773C8.18389 3.17773 8.31087 3.17988 8.42832 3.19977C8.72837 3.24962 8.93101 3.53369 8.88102 3.83307C8.83117 4.13246 8.542 4.33509 8.24772 4.28511C8.189 4.27557 8.1245 4.27852 8.06645 4.27852C5.84149 4.27852 4.03027 6.08894 4.03027 8.3147V10.3622C4.03027 12.1352 3.25305 13.8129 1.89991 14.9642C1.88889 14.973 1.87935 14.9811 1.86753 14.9892C1.84777 15.0142 1.82869 15.0523 1.82869 15.103C1.82869 15.2027 1.91241 15.2864 2.01211 15.2864H14.1208C14.2206 15.2864 14.3043 15.2027 14.3043 15.103C14.3043 15.0515 14.2853 15.0142 14.2647 14.9892C14.2537 14.9811 14.2441 14.973 14.2331 14.9642C12.8792 13.8121 12.1028 12.1352 12.1028 10.3622V9.56236C12.1028 9.25854 12.3493 9.01197 12.6532 9.01197C12.957 9.01197 13.2036 9.25854 13.2036 9.56236V10.3622C13.2036 11.7911 13.8207 13.1442 14.8995 14.0851C14.9192 14.0983 14.9383 14.1122 14.9559 14.1277C15.2415 14.3713 15.4051 14.7271 15.4051 15.103C15.4051 15.8111 14.8291 16.3872 14.1208 16.3872Z" fill="#FE5C73"/>
    <path d="M13.2035 8.31511C11.1803 8.31511 9.53418 6.66916 9.53418 4.6459C9.53418 2.62264 11.1803 0.976562 13.2035 0.976562C15.2268 0.976562 16.8727 2.62264 16.8727 4.6459C16.8727 6.66916 15.2268 8.31511 13.2035 8.31511ZM13.2035 2.07735C11.7871 2.07735 10.635 3.22947 10.635 4.6459C10.635 6.0622 11.7871 7.21432 13.2035 7.21432C14.6198 7.21432 15.7719 6.0622 15.7719 4.6459C15.7719 3.22947 14.6198 2.07735 13.2035 2.07735Z" fill="#FE5C73"/>
  </g>
  <defs>
    <clipPath id="clip0_76_3089">
      <rect width="17.6126" height="17.6126" fill="white" transform="translate(0.00549316 0.976562)"/>
    </clipPath>
  </defs>
</svg>