<svg width="20" height="24" viewBox="0 0 20 24" fill="none" xmlns="http://www.w3.org/2000/svg">
<path d="M14.3078 3.08697L14.3073 3.08643C14.3029 3.082 14.2966 3.08028 14.2919 3.07617C14.2394 3.02633 14.1694 2.999 14.097 3.00003H2.6999C2.6605 3 2.62148 3.00775 2.58507 3.02282C2.54866 3.03789 2.51558 3.05998 2.48772 3.08784C2.45986 3.11571 2.43776 3.14879 2.42269 3.1852C2.40762 3.2216 2.39988 3.26062 2.3999 3.30003V20.1C2.39988 20.1394 2.40762 20.1785 2.42269 20.2149C2.43776 20.2513 2.45986 20.2843 2.48772 20.3122C2.51558 20.3401 2.54866 20.3622 2.58507 20.3772C2.62148 20.3923 2.6605 20.4001 2.6999 20.4H16.9229C16.9624 20.4001 17.0014 20.3923 17.0378 20.3772C17.0742 20.3622 17.1073 20.3401 17.1351 20.3122C17.163 20.2843 17.1851 20.2513 17.2002 20.2149C17.2152 20.1785 17.223 20.1394 17.2229 20.1V6.08587C17.223 6.04609 17.215 6.00671 17.1997 5.97003C17.1843 5.93336 17.1617 5.90012 17.1333 5.87227L14.31 3.08907L14.3078 3.08697ZM14.397 4.01703L16.2402 5.83391H14.397V4.01703ZM2.9999 19.8V3.60003H13.797V6.13391C13.797 6.17331 13.8047 6.21234 13.8198 6.24874C13.8348 6.28515 13.8569 6.31823 13.8848 6.34609C13.9127 6.37396 13.9457 6.39605 13.9821 6.41112C14.0185 6.42619 14.0576 6.43393 14.097 6.43391H16.623V19.8H2.9999Z" fill="#353535"/>
<path d="M5.85254 6.34546H4.29365C4.25425 6.34544 4.21523 6.35318 4.17882 6.36825C4.14241 6.38332 4.10933 6.40542 4.08147 6.43328C4.05361 6.46114 4.03151 6.49422 4.01644 6.53063C4.00137 6.56704 3.99363 6.60606 3.99365 6.64546V8.20464C3.99363 8.24405 4.00137 8.28307 4.01644 8.31947C4.03151 8.35588 4.05361 8.38896 4.08147 8.41682C4.10933 8.44469 4.14241 8.46678 4.17882 8.48185C4.21523 8.49692 4.25425 8.50467 4.29365 8.50464H5.85254C5.89195 8.50467 5.93097 8.49692 5.96737 8.48185C6.00378 8.46678 6.03686 8.44469 6.06472 8.41682C6.09259 8.38896 6.11468 8.35588 6.12975 8.31947C6.14482 8.28307 6.15256 8.24405 6.15254 8.20464V6.64546C6.15256 6.60606 6.14482 6.56704 6.12975 6.53063C6.11468 6.49422 6.09259 6.46114 6.06472 6.43328C6.03686 6.40542 6.00378 6.38332 5.96737 6.36825C5.93097 6.35318 5.89195 6.34544 5.85254 6.34546ZM5.55254 7.90464H4.59365V6.94546H5.55254V7.90464Z" fill="#353535"/>
<path d="M7.21895 7.25088H10.7223C10.8018 7.25088 10.8781 7.21927 10.9344 7.16301C10.9907 7.10675 11.0223 7.03044 11.0223 6.95088C11.0223 6.87131 10.9907 6.79501 10.9344 6.73875C10.8781 6.68249 10.8018 6.65088 10.7223 6.65088H7.21895C7.13938 6.65088 7.06307 6.68249 7.00681 6.73875C6.95055 6.79501 6.91895 6.87131 6.91895 6.95088C6.91895 7.03044 6.95055 7.10675 7.00681 7.16301C7.06307 7.21927 7.13938 7.25088 7.21895 7.25088Z" fill="#353535"/>
<path d="M13.6959 7.59912H7.21895C7.13938 7.59912 7.06307 7.63073 7.00681 7.68699C6.95055 7.74325 6.91895 7.81956 6.91895 7.89912C6.91895 7.97869 6.95055 8.05499 7.00681 8.11125C7.06307 8.16751 7.13938 8.19912 7.21895 8.19912H13.6959C13.7755 8.19912 13.8518 8.16751 13.908 8.11125C13.9643 8.05499 13.9959 7.97869 13.9959 7.89912C13.9959 7.81956 13.9643 7.74325 13.908 7.68699C13.8518 7.63073 13.7755 7.59912 13.6959 7.59912Z" fill="#353535"/>
<path d="M5.85254 9.71509H4.29365C4.25425 9.71507 4.21523 9.72281 4.17882 9.73788C4.14241 9.75295 4.10933 9.77505 4.08147 9.80291C4.05361 9.83077 4.03151 9.86385 4.01644 9.90026C4.00138 9.93666 3.99363 9.97569 3.99365 10.0151V11.574C3.99363 11.6134 4.00137 11.6524 4.01644 11.6888C4.03151 11.7252 4.05361 11.7583 4.08147 11.7861C4.10933 11.814 4.14241 11.8361 4.17882 11.8512C4.21523 11.8662 4.25425 11.874 4.29365 11.874H5.85254C5.89195 11.874 5.93097 11.8662 5.96737 11.8512C6.00378 11.8361 6.03686 11.814 6.06472 11.7861C6.09259 11.7583 6.11468 11.7252 6.12975 11.6888C6.14482 11.6524 6.15256 11.6134 6.15254 11.574V10.0151C6.15256 9.97569 6.14482 9.93666 6.12975 9.90026C6.11468 9.86385 6.09259 9.83077 6.06472 9.80291C6.03686 9.77505 6.00378 9.75295 5.96737 9.73788C5.93097 9.72281 5.89195 9.71507 5.85254 9.71509ZM5.55254 11.274H4.59365V10.3151H5.55254V11.274Z" fill="#353535"/>
<path d="M7.21895 10.6205H10.7223C10.8018 10.6205 10.8781 10.5889 10.9344 10.5326C10.9907 10.4764 11.0223 10.4001 11.0223 10.3205C11.0223 10.2409 10.9907 10.1646 10.9344 10.1084C10.8781 10.0521 10.8018 10.0205 10.7223 10.0205H7.21895C7.13938 10.0205 7.06307 10.0521 7.00681 10.1084C6.95055 10.1646 6.91895 10.2409 6.91895 10.3205C6.91895 10.4001 6.95055 10.4764 7.00681 10.5326C7.06307 10.5889 7.13938 10.6205 7.21895 10.6205Z" fill="#353535"/>
<path d="M13.6959 10.9688H7.21895C7.13938 10.9688 7.06307 11.0004 7.00681 11.0566C6.95055 11.1129 6.91895 11.1892 6.91895 11.2688C6.91895 11.3483 6.95055 11.4246 7.00681 11.4809C7.06307 11.5371 7.13938 11.5688 7.21895 11.5688H13.6959C13.7755 11.5688 13.8518 11.5371 13.908 11.4809C13.9643 11.4246 13.9959 11.3483 13.9959 11.2688C13.9959 11.1892 13.9643 11.1129 13.908 11.0566C13.8518 11.0004 13.7755 10.9688 13.6959 10.9688Z" fill="#353535"/>
<path d="M5.85254 13.085H4.29365C4.25425 13.0849 4.21523 13.0927 4.17882 13.1078C4.14241 13.1228 4.10933 13.1449 4.08147 13.1728C4.05361 13.2006 4.03151 13.2337 4.01644 13.2701C4.00137 13.3065 3.99363 13.3456 3.99365 13.385V14.9438C3.99363 14.9832 4.00137 15.0223 4.01644 15.0587C4.03151 15.0951 4.05361 15.1282 4.08147 15.156C4.10933 15.1839 4.14241 15.206 4.17882 15.2211C4.21523 15.2361 4.25425 15.2439 4.29365 15.2438H5.85254C5.89195 15.2439 5.93097 15.2361 5.96737 15.2211C6.00378 15.206 6.03686 15.1839 6.06472 15.156C6.09259 15.1282 6.11468 15.0951 6.12975 15.0587C6.14482 15.0223 6.15256 14.9832 6.15254 14.9438V13.385C6.15256 13.3456 6.14482 13.3065 6.12975 13.2701C6.11468 13.2337 6.09259 13.2006 6.06472 13.1728C6.03686 13.1449 6.00378 13.1228 5.96737 13.1078C5.93097 13.0927 5.89195 13.0849 5.85254 13.085ZM5.55254 14.6438H4.59365V13.685H5.55254V14.6438Z" fill="#353535"/>
<path d="M7.21895 13.9901H10.7223C10.8018 13.9901 10.8781 13.9585 10.9344 13.9023C10.9907 13.846 11.0223 13.7697 11.0223 13.6901C11.0223 13.6106 10.9907 13.5343 10.9344 13.478C10.8781 13.4217 10.8018 13.3901 10.7223 13.3901H7.21895C7.13938 13.3901 7.06307 13.4217 7.00681 13.478C6.95055 13.5343 6.91895 13.6106 6.91895 13.6901C6.91895 13.7697 6.95055 13.846 7.00681 13.9023C7.06307 13.9585 7.13938 13.9901 7.21895 13.9901Z" fill="#353535"/>
<path d="M13.6959 14.3384H7.21895C7.13938 14.3384 7.06307 14.37 7.00681 14.4262C6.95055 14.4825 6.91895 14.5588 6.91895 14.6384C6.91895 14.7179 6.95055 14.7942 7.00681 14.8505C7.06307 14.9068 7.13938 14.9384 7.21895 14.9384H13.6959C13.7755 14.9384 13.8518 14.9068 13.908 14.8505C13.9643 14.7942 13.9959 14.7179 13.9959 14.6384C13.9959 14.5588 13.9643 14.4825 13.908 14.4262C13.8518 14.37 13.7755 14.3384 13.6959 14.3384Z" fill="#353535"/>
<path d="M5.85254 16.4546H4.29365C4.25425 16.4546 4.21523 16.4623 4.17882 16.4774C4.14241 16.4924 4.10933 16.5145 4.08147 16.5424C4.05361 16.5703 4.03151 16.6033 4.01644 16.6398C4.00137 16.6762 3.99363 16.7152 3.99365 16.7546V18.3135C3.99363 18.3529 4.00137 18.3919 4.01644 18.4283C4.03151 18.4647 4.05361 18.4978 4.08147 18.5257C4.10933 18.5535 4.14241 18.5756 4.17882 18.5907C4.21523 18.6058 4.25425 18.6135 4.29365 18.6135H5.85254C5.89195 18.6135 5.93097 18.6058 5.96737 18.5907C6.00378 18.5756 6.03686 18.5535 6.06472 18.5257C6.09259 18.4978 6.11468 18.4647 6.12975 18.4283C6.14482 18.3919 6.15256 18.3529 6.15254 18.3135V16.7546C6.15256 16.7152 6.14482 16.6762 6.12975 16.6398C6.11468 16.6034 6.09259 16.5703 6.06472 16.5424C6.03686 16.5145 6.00378 16.4924 5.96737 16.4774C5.93097 16.4623 5.89195 16.4546 5.85254 16.4546ZM5.55254 18.0135H4.59365V17.0546H5.55254V18.0135Z" fill="#353535"/>
<path d="M7.21895 17.3598H10.7223C10.8018 17.3598 10.8781 17.3282 10.9344 17.2719C10.9907 17.2156 11.0223 17.1393 11.0223 17.0598C11.0223 16.9802 10.9907 16.9039 10.9344 16.8476C10.8781 16.7914 10.8018 16.7598 10.7223 16.7598H7.21895C7.13938 16.7598 7.06307 16.7914 7.00681 16.8476C6.95055 16.9039 6.91895 16.9802 6.91895 17.0598C6.91895 17.1393 6.95055 17.2156 7.00681 17.2719C7.06307 17.3282 7.13938 17.3598 7.21895 17.3598Z" fill="#353535"/>
<path d="M13.6959 17.708H7.21895C7.13938 17.708 7.06307 17.7396 7.00681 17.7959C6.95055 17.8521 6.91895 17.9284 6.91895 18.008C6.91895 18.0876 6.95055 18.1639 7.00681 18.2201C7.06307 18.2764 7.13938 18.308 7.21895 18.308H13.6959C13.7755 18.308 13.8518 18.2764 13.908 18.2201C13.9643 18.1639 13.9959 18.0876 13.9959 18.008C13.9959 17.9284 13.9643 17.8521 13.908 17.7959C13.8518 17.7396 13.7755 17.708 13.6959 17.708Z" fill="#353535"/>
</svg>
