<svg xmlns="http://www.w3.org/2000/svg" width="20" height="20" viewBox="0 0 20 20" fill="none">
  <path d="M13.75 13.4375H12.9406L12.1875 12.6844V12.0844C12.2656 12.0187 12.3375 11.9469 12.4094 11.875H13.125C13.4852 11.8751 13.8344 11.7507 14.1134 11.5229C14.3924 11.2951 14.5842 10.9779 14.6562 10.625C14.8356 10.6115 15.0031 10.5305 15.1249 10.3982C15.2467 10.2659 15.3138 10.0923 15.3125 9.9125V7.9C15.3138 7.72526 15.2509 7.55613 15.1356 7.42476C15.0204 7.29339 14.8609 7.20895 14.6875 7.1875V6.5625C14.6875 5.3193 14.1936 4.12701 13.3146 3.24794C12.4355 2.36886 11.2432 1.875 10 1.875C8.7568 1.875 7.56451 2.36886 6.68544 3.24794C5.80636 4.12701 5.3125 5.3193 5.3125 6.5625V7.1875C5.14015 7.20883 4.98152 7.29237 4.86643 7.42242C4.75134 7.55247 4.68771 7.72008 4.6875 7.89375V9.90625C4.68667 10.0003 4.70449 10.0937 4.73993 10.1808C4.77537 10.268 4.82772 10.3473 4.89396 10.4141C4.96021 10.4809 5.03903 10.534 5.12589 10.5702C5.21274 10.6064 5.30591 10.625 5.4 10.625H6.71562L6.74687 10.6906C7.0083 11.2199 7.37024 11.6933 7.8125 12.0844V12.6844L7.05937 13.4375H6.25C5.0068 13.4375 3.81451 13.9314 2.93544 14.8104C2.05636 15.6895 1.5625 16.8818 1.5625 18.125V18.4375H18.4375V18.125C18.4375 16.8818 17.9436 15.6895 17.0646 14.8104C16.1855 13.9314 14.9932 13.4375 13.75 13.4375ZM10.625 17.8125H9.375V15.3906L9.94687 15.0781L10 15.1312L10.0531 15.0781L10.625 15.3906V17.8125ZM8.80625 12.7313C9.18451 12.8887 9.59028 12.9694 10 12.9688C10.1045 12.9673 10.2088 12.96 10.3125 12.9469H10.3813H10.4281H10.4906L10.65 12.9125C10.7026 12.9051 10.7548 12.8947 10.8063 12.8813C10.9123 12.8542 11.0167 12.8208 11.1188 12.7812H11.1375C11.1747 12.7675 11.2113 12.7519 11.2469 12.7344L11.3375 12.6969L11.5125 12.6062L11.5469 12.5875V12.7219L9.98438 14.2844L8.42188 12.7219V12.5875C8.54065 12.656 8.66384 12.7165 8.79062 12.7688L8.80625 12.7313ZM9.4875 14.6063L7.5 15.7188V13.8781L8.125 13.2531L9.4875 14.6063ZM12.5 13.8781V15.7188L10.5125 14.6156L11.875 13.2531L12.5 13.8781ZM13.125 11.25H12.9219C13.0622 11.053 13.1846 10.8439 13.2875 10.625H14.0063C13.9418 10.8074 13.8225 10.9653 13.6647 11.0772C13.5069 11.1891 13.3184 11.2495 13.125 11.25ZM10 2.5C10.7545 2.50084 11.4939 2.71178 12.1352 3.10918C12.7766 3.50659 13.2946 4.07475 13.6312 4.75C13.2712 4.21365 12.7969 3.76369 12.2423 3.43242C11.6877 3.10116 11.0666 2.89682 10.4237 2.83408C9.78076 2.77134 9.13191 2.85176 8.52374 3.06956C7.91558 3.28735 7.36319 3.63712 6.90625 4.09375C6.70777 4.29398 6.52883 4.51267 6.37187 4.74687C6.7087 4.07268 7.22642 3.50547 7.86715 3.10867C8.50788 2.71187 9.24635 2.50113 10 2.5ZM7.30625 10.4094C7.02356 9.84583 6.87592 9.22422 6.875 8.59375V7.8125H10C10.2884 7.81279 10.5713 7.73324 10.8173 7.58266C11.0633 7.43209 11.2628 7.21636 11.3937 6.95938C11.5979 7.22451 11.8601 7.43929 12.1602 7.58719C12.4603 7.7351 12.7904 7.81217 13.125 7.8125V8.59375C13.127 9.56985 12.775 10.5136 12.1344 11.25H10.625C10.625 11.1671 10.5921 11.0876 10.5335 11.029C10.4749 10.9704 10.3954 10.9375 10.3125 10.9375H9.6875C9.60462 10.9375 9.52513 10.9704 9.46653 11.029C9.40792 11.0876 9.375 11.1671 9.375 11.25V11.5625C9.375 11.6454 9.40792 11.7249 9.46653 11.7835C9.52513 11.8421 9.60462 11.875 9.6875 11.875H11.45C11.3666 11.9349 11.28 11.9902 11.1906 12.0406L11.125 12.075C10.9042 12.1859 10.6684 12.2638 10.425 12.3063H10.3875C10.2624 12.3261 10.136 12.3365 10.0094 12.3375C9.87437 12.3382 9.73953 12.3278 9.60625 12.3063C9.20925 12.2403 8.83404 12.0795 8.5125 11.8375C8.46562 11.8031 8.42188 11.7656 8.38125 11.7313L8.35312 11.7062L8.125 11.5188C7.78988 11.1992 7.51284 10.8238 7.30625 10.4094Z" fill="#181B1C"/>
</svg>