<svg width="20" height="24" viewBox="0 0 20 24" fill="none" xmlns="http://www.w3.org/2000/svg">
<path d="M4.85659 8.55514C5.986 8.55514 6.91776 7.65161 6.91776 6.5222C6.91776 5.39279 5.986 4.48926 4.85659 4.48926C3.72718 4.48926 2.79541 5.39279 2.79541 6.5222C2.82365 7.62338 3.72718 8.55514 4.85659 8.55514ZM4.85659 5.05396C5.67541 5.05396 6.35306 5.70338 6.35306 6.5222C6.35306 7.34102 5.67541 7.99043 4.85659 7.99043C4.03776 7.99043 3.36012 7.34102 3.36012 6.5222C3.36012 5.70338 4.03776 5.05396 4.85659 5.05396Z" fill="#353535"/>
<path d="M4.85634 2.82349C2.3434 2.82349 0.282227 4.88466 0.282227 7.3976C0.282227 9.93878 2.3434 11.9717 4.85634 11.9717C7.36929 11.9717 9.43046 9.91055 9.43046 7.3976C9.4587 4.88466 7.39752 2.82349 4.85634 2.82349ZM4.85634 3.38819C7.0587 3.38819 8.86576 5.19525 8.86576 7.3976C8.86576 8.3576 8.52693 9.2329 7.96223 9.93878C7.51046 9.11996 6.63517 8.61172 5.67517 8.61172H4.00929C3.04929 8.61172 2.17399 9.11996 1.72223 9.93878C1.15752 9.26113 0.818697 8.3576 0.818697 7.3976C0.846932 5.19525 2.65399 3.38819 4.85634 3.38819ZM2.17399 10.3623C2.51281 9.65643 3.24693 9.17643 4.03752 9.17643H5.7034C6.52223 9.17643 7.22811 9.65643 7.56693 10.3623C6.86105 11.0117 5.90105 11.407 4.88458 11.407C3.83987 11.407 2.87987 11.0117 2.17399 10.3623Z" fill="#353535"/>
<path d="M14.3434 18.0141C15.4728 18.0141 16.4046 17.1106 16.4046 15.9812C16.4046 14.8518 15.4728 13.9482 14.3434 13.9482C13.214 13.9482 12.2822 14.8518 12.2822 15.9812C12.2822 17.1106 13.214 18.0141 14.3434 18.0141ZM14.3434 14.5412C15.1622 14.5412 15.8399 15.1906 15.8399 16.0094C15.8399 16.8282 15.1622 17.4777 14.3434 17.4777C13.5246 17.4777 12.8469 16.8282 12.8469 16.0094C12.8469 15.1906 13.5246 14.5412 14.3434 14.5412Z" fill="#353535"/>
<path d="M18.9173 16.8849C18.9173 14.372 16.8561 12.3108 14.3432 12.3108C11.802 12.3108 9.76904 14.372 9.76904 16.8849C9.76904 19.3979 11.8302 21.459 14.3432 21.459C16.8561 21.459 18.9173 19.3979 18.9173 16.8849ZM14.3432 12.8755C16.5455 12.8755 18.3526 14.6826 18.3526 16.8849C18.3526 17.8449 18.0137 18.7202 17.449 19.4261C16.9973 18.6073 16.122 18.099 15.162 18.099H13.4961C12.5361 18.099 11.6608 18.6073 11.209 19.4261C10.6443 18.7484 10.3055 17.8449 10.3055 16.8849C10.3055 14.6826 12.1126 12.8755 14.3432 12.8755ZM11.6326 19.8496C11.9714 19.1437 12.7055 18.6637 13.4961 18.6637H15.162C15.9808 18.6637 16.6867 19.1437 17.0255 19.8496C16.3196 20.499 15.3596 20.8943 14.3432 20.8943C13.2985 20.8943 12.3385 20.499 11.6326 19.8496Z" fill="#353535"/>
<path d="M14.1178 10.8141C14.1742 10.8988 14.2589 10.927 14.3437 10.927C14.4284 10.927 14.5131 10.8705 14.5695 10.8141L17.0825 7.34113C17.1389 7.25643 17.1672 7.14349 17.1107 7.05878C17.0542 6.97407 16.9695 6.9176 16.8566 6.9176H15.7272L15.6989 3.10584C15.6989 2.96466 15.5578 2.82349 15.4166 2.82349H13.186C13.1013 2.82349 13.0448 2.85172 12.9884 2.90819C12.9319 2.96466 12.9037 3.02113 12.9037 3.10584L12.9319 6.88937H11.8025C11.6895 6.88937 11.6048 6.94584 11.5484 7.05878C11.4919 7.14349 11.5201 7.25643 11.5766 7.34113L14.1178 10.8141ZM13.2142 7.45407C13.2989 7.45407 13.3554 7.42584 13.4119 7.36937C13.4684 7.3129 13.4966 7.25643 13.4966 7.17172L13.4684 3.38819H15.1342L15.1625 7.14349C15.1625 7.28466 15.3037 7.42584 15.4448 7.42584H16.3201L14.3437 10.1364L12.3389 7.42584L13.2142 7.45407Z" fill="#353535"/>
<path d="M5.08215 13.4682C5.02568 13.3835 4.94097 13.3552 4.85626 13.3552C4.77156 13.3552 4.68685 13.4117 4.63038 13.4682L2.06097 16.9693C2.0045 17.054 1.97626 17.167 2.03273 17.2517C2.0892 17.3364 2.20215 17.4211 2.28685 17.3929H3.4445L3.47273 21.1764C3.47273 21.3176 3.61391 21.4588 3.75509 21.4588H6.01391C6.09862 21.4588 6.15509 21.4305 6.21156 21.374C6.26803 21.3176 6.29626 21.2611 6.29626 21.1764L6.26803 17.3929H7.42568C7.53862 17.3929 7.62332 17.3364 7.67979 17.2235C7.73626 17.1388 7.70803 17.0258 7.65156 16.9411L5.08215 13.4682ZM5.98568 16.8282C5.90097 16.8282 5.8445 16.8564 5.78803 16.9129C5.73156 16.9693 5.70332 17.0258 5.70332 17.1105L5.73156 20.894H4.03744L4.0092 17.1388C4.0092 16.9693 3.89626 16.8564 3.72685 16.8564H2.85156L4.85626 14.1176L6.8892 16.8282H5.98568Z" fill="#353535"/>
</svg>
