<svg width="20" height="24" viewBox="0 0 20 24" fill="none" xmlns="http://www.w3.org/2000/svg">
<path d="M16.4309 12.1565C16.2189 12.1565 16.0469 12.3285 16.0469 12.5405V20.928H3.5805V17.294C3.5805 17.0821 3.40847 16.91 3.1965 16.91C2.98453 16.91 2.8125 17.0821 2.8125 17.294V21.312C2.8125 21.524 2.98453 21.696 3.1965 21.696H16.4309C16.6428 21.696 16.8149 21.524 16.8149 21.312V12.5405C16.8149 12.3285 16.6428 12.1565 16.4309 12.1565Z" fill="#353535"/>
<path d="M3.1965 12.822C3.40847 12.822 3.5805 12.65 3.5805 12.438V3.26409H7.15016C7.26748 4.63171 8.41621 5.70902 9.81359 5.70902C11.211 5.70902 12.3599 4.63171 12.4772 3.26409H16.0469V7.71888C16.0469 7.93085 16.2189 8.10288 16.4309 8.10288C16.6428 8.10288 16.8149 7.93085 16.8149 7.71888V2.88009C16.8149 2.66813 16.6428 2.49609 16.4309 2.49609H3.1965C2.98453 2.49609 2.8125 2.66813 2.8125 2.88009V12.438C2.8125 12.6502 2.98453 12.822 3.1965 12.822ZM9.81359 4.94102C8.83996 4.94102 8.03586 4.20739 7.92181 3.26409H11.7056C11.5915 4.20739 10.7872 4.94102 9.81359 4.94102Z" fill="#353535"/>
<path d="M15.0368 7.44528C15.0368 7.23331 14.8647 7.06128 14.6528 7.06128H4.97482C4.76285 7.06128 4.59082 7.23331 4.59082 7.44528C4.59082 7.65725 4.76285 7.82928 4.97482 7.82928H14.6528C14.8649 7.82928 15.0368 7.65744 15.0368 7.44528Z" fill="#353535"/>
<path d="M12.6172 9.76388C12.6172 9.55191 12.4452 9.37988 12.2332 9.37988H7.39425C7.18229 9.37988 7.01025 9.55191 7.01025 9.76388C7.01025 9.97585 7.18229 10.1479 7.39425 10.1479H12.2332C12.4454 10.1479 12.6172 9.97585 12.6172 9.76388Z" fill="#353535"/>
<path d="M10.2927 12.4665H12.618C12.83 12.4665 13.002 12.2945 13.002 12.0825C13.002 11.8705 12.83 11.6985 12.618 11.6985H10.2927C10.0807 11.6985 9.90869 11.8705 9.90869 12.0825C9.90869 12.2945 10.0807 12.4665 10.2927 12.4665Z" fill="#353535"/>
<path d="M9.33497 14.0168H6.83859C6.62662 14.0168 6.45459 14.1889 6.45459 14.4008C6.45459 14.6128 6.62662 14.7848 6.83859 14.7848H9.33497C9.54694 14.7848 9.71897 14.6128 9.71897 14.4008C9.71897 14.1889 9.54694 14.0168 9.33497 14.0168Z" fill="#353535"/>
<path d="M7.771 16.7194C7.771 16.9314 7.94303 17.1034 8.155 17.1034H11.472C11.684 17.1034 11.856 16.9314 11.856 16.7194C11.856 16.5075 11.684 16.3354 11.472 16.3354H8.155C7.94303 16.3354 7.771 16.5075 7.771 16.7194Z" fill="#353535"/>
<path d="M5.87305 19.0381C5.87305 19.25 6.04508 19.4221 6.25705 19.4221H13.3699C13.5818 19.4221 13.7539 19.25 13.7539 19.0381C13.7539 18.8261 13.5818 18.6541 13.3699 18.6541H6.25705C6.04489 18.6541 5.87305 18.8261 5.87305 19.0381Z" fill="#353535"/>
<path d="M16.6769 8.66919C15.8713 8.66919 15.216 9.32468 15.216 10.1303C15.216 10.3384 15.2603 10.5362 15.3394 10.7157L12.5017 13.1735C12.2736 13.0262 12.0026 12.9398 11.7118 12.9398C11.3923 12.9398 11.0976 13.0441 10.8568 13.2186L7.71779 11.6669C7.70915 10.8685 7.05769 10.2215 6.25743 10.2215C5.4518 10.2215 4.79631 10.877 4.79631 11.6826C4.79631 11.8938 4.8422 12.0941 4.92323 12.2755L3.17391 13.9066C2.95369 13.7735 2.6966 13.6952 2.42108 13.6952C1.61545 13.6952 0.959961 14.3507 0.959961 15.1563C0.959961 15.9619 1.61545 16.6174 2.42108 16.6174C3.22671 16.6174 3.8822 15.9619 3.8822 15.1563C3.8822 14.9046 3.81826 14.6675 3.70575 14.4607L5.41071 12.8711C5.64994 13.042 5.94179 13.1437 6.25763 13.1437C6.79292 13.1437 7.26063 12.8534 7.51503 12.423L10.3658 13.8325C10.2919 14.0072 10.2508 14.1994 10.2508 14.4008C10.2508 15.2064 10.9061 15.8619 11.7118 15.8619C12.5176 15.8619 13.1731 15.2064 13.1731 14.4008C13.1731 14.1646 13.1155 13.9419 13.0154 13.7443L15.8227 11.3128C16.0633 11.4872 16.358 11.5912 16.6771 11.5912C17.4829 11.5912 18.1384 10.9357 18.1384 10.1301C18.1384 9.32449 17.4827 8.66919 16.6769 8.66919ZM2.42089 15.85C2.03862 15.85 1.72777 15.5391 1.72777 15.1569C1.72777 14.7746 2.03881 14.4637 2.42089 14.4637C2.80297 14.4637 3.11401 14.7746 3.11401 15.1569C3.11401 15.5391 2.80297 15.85 2.42089 15.85ZM6.25724 12.3761C5.87497 12.3761 5.56412 12.0651 5.56412 11.683C5.56412 11.3009 5.87516 10.9899 6.25724 10.9899C6.63932 10.9899 6.95036 11.3009 6.95036 11.683C6.95036 12.0651 6.63951 12.3761 6.25724 12.3761ZM11.7116 15.0943C11.3295 15.0943 11.0186 14.7834 11.0186 14.4012C11.0186 14.0189 11.3295 13.708 11.7116 13.708C12.0938 13.708 12.4049 14.0189 12.4049 14.4012C12.4049 14.7834 12.0938 15.0943 11.7116 15.0943ZM16.6769 10.8236C16.2948 10.8236 15.984 10.5126 15.984 10.1305C15.984 9.74842 16.2948 9.43738 16.6769 9.43738C17.0592 9.43738 17.3702 9.74842 17.3702 10.1305C17.3702 10.5126 17.0592 10.8236 16.6769 10.8236Z" fill="#353535"/>
</svg>
