<svg width="23" height="22" viewBox="0 0 23 22" fill="none" xmlns="http://www.w3.org/2000/svg">
<path fill-rule="evenodd" clip-rule="evenodd" d="M22.3086 0.792921C22.5891 1.06456 22.6841 1.46779 22.5531 1.83038L15.6869 20.8304C15.547 21.2174 15.1774 21.4825 14.7544 21.4992C14.3314 21.5159 13.9407 21.2808 13.7688 20.9062L10.0065 12.7076L1.5414 9.06384C1.15454 8.89731 0.911829 8.51894 0.929086 8.10926C0.946343 7.69959 1.22007 7.34162 1.61965 7.20617L21.2374 0.55617C21.6118 0.429264 22.0282 0.521283 22.3086 0.792921ZM12.0203 12.1715L14.5981 17.789L19.1093 5.30571L12.0203 12.1715ZM17.6491 3.8915L4.75997 8.26063L10.5601 10.7573L17.6491 3.8915Z" fill="white"/>
</svg>
