<svg xmlns="http://www.w3.org/2000/svg" width="19" height="19" viewBox="0 0 19 19" fill="none">
  <g clip-path="url(#clip0_76_3084)">
    <path d="M10.2995 18.5892H9.19416C8.30015 18.5892 7.57277 17.8618 7.57277 16.9678V16.5939C7.19268 16.4724 6.8234 16.3191 6.46864 16.1356L6.20363 16.4006C5.56176 17.0432 4.53359 17.0244 3.91038 16.4003L3.12913 15.6191C2.50481 14.9955 2.48685 13.9677 3.12933 13.3259L3.39414 13.0611C3.21055 12.7063 3.0573 12.3371 2.93583 11.9569H2.56191C1.66793 11.9569 0.940552 11.2296 0.940552 10.3356V9.23017C0.940552 8.33616 1.66793 7.60881 2.56194 7.60881H2.93587C3.05733 7.2287 3.21058 6.85945 3.39417 6.50469L3.12916 6.23971C2.48706 5.59829 2.50477 4.57036 3.12937 3.94645L3.91068 3.16517C4.53535 2.53965 5.56328 2.52403 6.2039 3.16538L6.46868 3.43015C6.82344 3.24659 7.19272 3.09331 7.5728 2.97184V2.59792C7.5728 1.70391 8.30015 0.976562 9.19419 0.976562H10.2996C11.1936 0.976562 11.9209 1.70391 11.9209 2.59792V2.97188C12.301 3.09331 12.6703 3.24659 13.025 3.43019L13.2901 3.16517C13.9319 2.52252 14.9601 2.54137 15.5833 3.16541L16.3646 3.94663C16.9889 4.57026 17.0068 5.59808 16.3643 6.23988L16.0995 6.50469C16.2831 6.85945 16.4364 7.22866 16.5578 7.60881H16.9318C17.8258 7.60881 18.5532 8.33616 18.5532 9.23017V10.3356C18.5532 11.2296 17.8258 11.9569 16.9318 11.9569H16.5578C16.4364 12.337 16.2831 12.7063 16.0995 13.0611L16.3646 13.3261C17.0067 13.9675 16.9889 14.9954 16.3643 15.6193L15.583 16.4006C14.9584 17.0261 13.9304 17.0417 13.2898 16.4004L13.025 16.1356C12.6703 16.3192 12.301 16.4725 11.9209 16.5939V16.9679C11.9209 17.8618 11.1936 18.5892 10.2995 18.5892ZM6.64116 15.0519C7.134 15.3433 7.66444 15.5635 8.21773 15.7063C8.44559 15.7651 8.60479 15.9706 8.60479 16.2059V16.9678C8.60479 17.2928 8.86922 17.5572 9.19419 17.5572H10.2996C10.6245 17.5572 10.889 17.2928 10.889 16.9678V16.2059C10.889 15.9706 11.0482 15.7651 11.276 15.7063C11.8293 15.5635 12.3598 15.3433 12.8526 15.0519C13.0554 14.9319 13.3135 14.9646 13.4801 15.1312L14.0198 15.6708C14.2525 15.9038 14.6261 15.8984 14.8531 15.6711L15.6349 14.8893C15.8613 14.6632 15.8689 14.2895 15.6351 14.056L15.0952 13.5161C14.9286 13.3495 14.896 13.0913 15.0159 12.8886C15.3074 12.3958 15.5275 11.8653 15.6703 11.312C15.7292 11.0841 15.9347 10.925 16.17 10.925H16.9318C17.2568 10.925 17.5212 10.6606 17.5212 10.3356V9.2302C17.5212 8.90523 17.2568 8.64083 16.9318 8.64083H16.17C15.9346 8.64083 15.7292 8.48163 15.6703 8.2538C15.5275 7.70049 15.3074 7.17004 15.0159 6.67724C14.896 6.47448 14.9286 6.21628 15.0952 6.04972L15.6349 5.51002C15.8682 5.277 15.8621 4.90342 15.6351 4.67669L14.8534 3.89496C14.6268 3.66806 14.2531 3.66142 14.02 3.89475L13.4802 4.43465C13.3136 4.60125 13.0553 4.63386 12.8526 4.51395C12.3598 4.22248 11.8293 4.00229 11.2761 3.85949C11.0482 3.8007 10.889 3.5952 10.889 3.35987V2.59792C10.889 2.27295 10.6246 2.00855 10.2996 2.00855H9.19423C8.86925 2.00855 8.60482 2.27295 8.60482 2.59792V3.3598C8.60482 3.59513 8.44562 3.80063 8.21776 3.85942C7.66448 4.00222 7.13403 4.22241 6.64119 4.51388C6.43837 4.63376 6.1802 4.60115 6.01364 4.43459L5.47398 3.89489C5.2413 3.66194 4.86761 3.66734 4.64068 3.89465L3.85888 4.67641C3.63246 4.90256 3.62489 5.27624 3.85867 5.50975L4.39857 6.04965C4.56514 6.21621 4.59775 6.47441 4.47787 6.67717C4.1864 7.16998 3.96624 7.70042 3.82345 8.25374C3.76462 8.4816 3.55912 8.64077 3.32383 8.64077H2.56194C2.23697 8.6408 1.97254 8.9052 1.97254 9.23017V10.3356C1.97254 10.6605 2.23697 10.9249 2.56194 10.9249H3.32379C3.55912 10.9249 3.76459 11.0841 3.82341 11.312C3.96621 11.8653 4.1864 12.3957 4.47783 12.8885C4.59771 13.0913 4.5651 13.3495 4.39854 13.5161L3.85884 14.0557C3.62555 14.2888 3.63164 14.6624 3.85864 14.8891L4.64037 15.6708C4.86696 15.8977 5.24068 15.9044 5.4737 15.671L6.01357 15.1311C6.13631 15.0084 6.39165 14.9043 6.64116 15.0519Z" fill="#849A8E"/>
    <path d="M9.74685 13.6154C7.63379 13.6154 5.91473 11.8963 5.91473 9.78329C5.91473 7.67026 7.63379 5.95117 9.74685 5.95117C11.8599 5.95117 13.579 7.67026 13.579 9.78329C13.579 11.8963 11.8599 13.6154 9.74685 13.6154ZM9.74685 6.98316C8.20283 6.98316 6.94672 8.2393 6.94672 9.78329C6.94672 11.3273 8.20286 12.5834 9.74685 12.5834C11.2908 12.5834 12.547 11.3273 12.547 9.78329C12.547 8.2393 11.2909 6.98316 9.74685 6.98316Z" fill="#849A8E"/>
  </g>
  <defs>
    <clipPath id="clip0_76_3084">
      <rect width="17.6126" height="17.6126" fill="white" transform="translate(0.940552 0.976562)"/>
    </clipPath>
  </defs>
</svg>