<svg width="20" height="24" viewBox="0 0 20 24" fill="none" xmlns="http://www.w3.org/2000/svg">
<path d="M3.12402 13.5077V13.5032" stroke="#353535" stroke-width="0.834257" stroke-miterlimit="10" stroke-linecap="round" stroke-linejoin="round"/>
<path d="M10.3452 19.3471C13.1191 18.8257 15.2298 16.4189 15.2882 13.5073" stroke="#353535" stroke-width="0.834257" stroke-miterlimit="10" stroke-linecap="round" stroke-linejoin="round"/>
<path d="M3.12891 8.94826C3.19565 5.65294 5.89447 3 9.20647 3H9.21064C12.5226 3 15.2215 5.65294 15.2882 8.94826" stroke="#353535" stroke-width="0.834257" stroke-miterlimit="10" stroke-linecap="round" stroke-linejoin="round"/>
<path d="M10.3485 19.4547C10.3485 19.9934 9.83846 20.4286 9.20695 20.4286C8.57547 20.4286 8.06543 19.9934 8.06543 19.4547C8.06543 18.9159 8.57547 18.4807 9.20695 18.4807C9.83846 18.4807 10.3485 18.9159 10.3485 19.4547Z" stroke="#353535" stroke-width="0.834257" stroke-miterlimit="10" stroke-linecap="round" stroke-linejoin="round"/>
<path d="M13.5454 8.35474C15.1352 8.35474 16.4173 9.64274 16.4173 11.2266C16.4173 12.8163 15.1352 14.0986 13.5454 14.0986V8.35474Z" stroke="#353535" stroke-width="0.834257" stroke-miterlimit="10" stroke-linecap="round" stroke-linejoin="round"/>
<path d="M4.87194 8.35474C3.28219 8.35474 2 9.64274 2 11.2266C2 12.8163 3.28219 14.0986 4.87194 14.0986V8.35474Z" stroke="#353535" stroke-width="0.834257" stroke-miterlimit="10" stroke-linecap="round" stroke-linejoin="round"/>
</svg>
