<svg width="14" height="14" viewBox="0 0 14 14" fill="none" xmlns="http://www.w3.org/2000/svg">
<path d="M6.66667 12.333C9.6 12.333 12 9.93301 12 6.99967C12 4.06634 9.6 1.66634 6.66667 1.66634C3.73333 1.66634 1.33333 4.06634 1.33333 6.99967C1.33333 9.93301 3.73333 12.333 6.66667 12.333ZM6.66667 0.333008C10.3333 0.333008 13.3333 3.33301 13.3333 6.99967C13.3333 10.6663 10.3333 13.6663 6.66667 13.6663C3 13.6663 0 10.6663 0 6.99967C0 3.33301 3 0.333008 6.66667 0.333008ZM10 6.66634V7.66634H6V3.66634H7V6.66634H10Z" fill="#868686"/>
</svg>
