<svg width="14" height="16" viewBox="0 0 14 16" fill="none" xmlns="http://www.w3.org/2000/svg">
<path d="M13.125 7.75C13.125 5.5625 11.9492 3.56641 10.0625 2.47266C8.14844 1.35156 5.82422 1.35156 3.9375 2.47266C2.02344 3.56641 0.875 5.5625 0.875 7.75C0.875 9.96484 2.02344 11.9609 3.9375 13.0547C5.82422 14.1758 8.14844 14.1758 10.0625 13.0547C11.9492 11.9609 13.125 9.96484 13.125 7.75ZM0 7.75C0 5.26172 1.3125 2.96484 3.5 1.70703C5.66016 0.449219 8.3125 0.449219 10.5 1.70703C12.6602 2.96484 14 5.26172 14 7.75C14 10.2656 12.6602 12.5625 10.5 13.8203C8.3125 15.0781 5.66016 15.0781 3.5 13.8203C1.3125 12.5625 0 10.2656 0 7.75ZM6.5625 3.8125C6.5625 3.59375 6.75391 3.375 7 3.375C7.21875 3.375 7.4375 3.59375 7.4375 3.8125L7.4375 7.53125L9.84375 9.14453C10.0625 9.28125 10.1172 9.55469 9.98047 9.74609C9.84375 9.96484 9.57031 10.0195 9.37891 9.88281L6.75391 8.13281C6.61719 8.05078 6.5625 7.91406 6.5625 7.75L6.5625 3.8125Z" fill="#F8F8F8"/>
</svg>
