<svg width="35" height="35" viewBox="0 0 35 35" fill="none" xmlns="http://www.w3.org/2000/svg">
<circle cx="17.0369" cy="17.0056" r="16.5054" stroke="#656263" stroke-width="1.00033"/>
<path d="M24.6395 13.5934C24.6502 13.7422 24.6502 13.891 24.6502 14.0398C24.6502 18.5781 21.1434 23.8074 14.7339 23.8074C12.7592 23.8074 10.9249 23.244 9.38184 22.2663C9.6624 22.2981 9.93213 22.3088 10.2235 22.3088C11.8528 22.3088 13.3527 21.7667 14.5504 20.842C13.0182 20.8101 11.7341 19.8217 11.2917 18.4612C11.5075 18.4931 11.7233 18.5144 11.95 18.5144C12.2629 18.5144 12.5758 18.4718 12.8671 18.3975C11.2702 18.0786 10.0724 16.6969 10.0724 15.0282V14.9857C10.5364 15.2408 11.0759 15.4002 11.6478 15.4215C10.709 14.805 10.094 13.7528 10.094 12.5624C10.094 11.9247 10.2666 11.3401 10.5687 10.8299C12.2844 12.9131 14.8633 14.2736 17.7551 14.4224C17.7012 14.1673 17.6688 13.9016 17.6688 13.6359C17.6688 11.744 19.2226 10.2029 21.1541 10.2029C22.1576 10.2029 23.064 10.6174 23.7007 11.287C24.4883 11.1382 25.2437 10.8512 25.9127 10.458C25.6537 11.2551 25.1034 11.9247 24.3804 12.3498C25.0818 12.2755 25.7616 12.0841 26.3874 11.8184C25.9128 12.4986 25.3192 13.1044 24.6395 13.5934Z" fill="#656263"/>
</svg>
