<svg width="20" height="24" viewBox="0 0 20 24" fill="none" xmlns="http://www.w3.org/2000/svg">
<path d="M8.61755 10.877C10.6633 10.877 12.3279 9.21221 12.3279 7.16665C12.3279 5.12031 10.6633 3.45605 8.61755 3.45605C6.57159 3.45605 4.90676 5.12031 4.90676 7.16665C4.90676 9.21221 6.57159 10.877 8.61755 10.877ZM8.61755 4.01324C10.3561 4.01324 11.7706 5.42789 11.7706 7.16665C11.7706 8.90521 10.3561 10.3197 8.61755 10.3197C6.87879 10.3197 5.46433 8.90521 5.46433 7.16665C5.46452 5.42789 6.87898 4.01324 8.61755 4.01324ZM16.9786 15.7878H16.4302C16.354 15.4998 16.2401 15.2249 16.0902 14.9674L16.4778 14.5794C16.5867 14.4705 16.5867 14.2943 16.4778 14.1852L15.6463 13.3535C15.5374 13.2446 15.3612 13.2446 15.2521 13.3535L14.8641 13.7411C14.6064 13.5915 14.3313 13.4775 14.0435 13.4011V12.8529C14.0435 12.6991 13.9187 12.5743 13.7645 12.5743H12.5883H12.5877C11.7253 12.03 10.7363 11.7399 9.71636 11.7399H7.51834C4.53716 11.7399 2.11182 14.1654 2.11182 17.1466V19.037C2.11182 19.1908 2.23604 19.3156 2.39041 19.3156H10.0662L10.7071 19.9565C10.8117 20.0614 10.997 20.0612 11.1013 19.9565L11.4891 19.5687C11.747 19.7185 12.0217 19.8323 12.3097 19.9087V20.4571C12.3097 20.6109 12.4345 20.7357 12.5885 20.7357H13.7647C13.9189 20.7357 14.0437 20.6109 14.0437 20.4571V19.9087C14.3317 19.8325 14.6068 19.7188 14.8645 19.5687L15.2525 19.9563C15.3612 20.0654 15.5376 20.0654 15.6465 19.9563L16.478 19.125C16.5869 19.0161 16.5869 18.8397 16.478 18.7306L16.0902 18.3428C16.2401 18.0847 16.354 17.8098 16.4302 17.5218H16.9786C17.1324 17.5218 17.2572 17.3972 17.2572 17.243V16.0668C17.2572 15.9128 17.1324 15.7878 16.9786 15.7878ZM2.669 17.1466C2.669 14.4726 4.84417 12.2975 7.51834 12.2975H9.71636C10.6383 12.2975 11.5321 12.5615 12.3095 13.0574V13.4011C12.0215 13.4775 11.747 13.5915 11.4889 13.7413L11.1009 13.3535C10.9962 13.2488 10.811 13.2488 10.7067 13.3535L9.87534 14.1852C9.76628 14.2941 9.76628 14.4703 9.87534 14.5794L10.2628 14.9674C10.1134 15.2251 9.99918 15.4996 9.92276 15.7878H9.37441C9.22062 15.7878 9.09582 15.9126 9.09582 16.0666V17.243C9.09582 17.3972 9.22062 17.5216 9.37441 17.5216H9.92276C9.99898 17.81 10.1132 18.0849 10.2628 18.3426L9.87534 18.7304C9.86708 18.7385 9.86382 18.7492 9.8569 18.7581H2.669V17.1466ZM16.7 16.9644H16.2081C16.0744 16.9644 15.9598 17.0591 15.9345 17.1904C15.8625 17.5629 15.7181 17.9115 15.5052 18.2266C15.4303 18.337 15.4447 18.4854 15.539 18.5797L15.8869 18.9276L15.4493 19.3652L15.1014 19.0177C15.0071 18.9232 14.8591 18.909 14.7483 18.9835C14.4332 19.1964 14.0847 19.3408 13.7119 19.413C13.5807 19.4381 13.4861 19.5529 13.4861 19.6864V20.1783H12.8671V19.6864C12.8671 19.5529 12.7722 19.4381 12.6413 19.413C12.2682 19.3408 11.9194 19.1964 11.6047 18.9835C11.4943 18.9088 11.3459 18.9234 11.2516 19.0177L10.9037 19.3652L10.4661 18.9276L10.814 18.5797C10.9085 18.4854 10.9225 18.337 10.8478 18.2264C10.6351 17.9119 10.4905 17.5633 10.4185 17.1904C10.3932 17.0591 10.2785 16.9644 10.1449 16.9644H9.65319V16.3454H10.1449C10.2783 16.3454 10.3932 16.2507 10.4185 16.1196C10.4905 15.7467 10.6351 15.3981 10.8478 15.0832C10.9227 14.9726 10.9085 14.8244 10.814 14.7299L10.4661 14.3822L10.9037 13.9444L11.2516 14.2923C11.3457 14.3866 11.4939 14.401 11.6047 14.3261C11.9199 14.1134 12.2684 13.9688 12.6411 13.897C12.7722 13.8717 12.8671 13.757 12.8671 13.6234V13.1315H13.4861V13.6234C13.4861 13.7569 13.5807 13.8717 13.7121 13.897C14.0846 13.9688 14.4332 14.1134 14.7481 14.3261C14.8591 14.4012 15.0071 14.3866 15.1012 14.2923L15.4493 13.9444L15.8869 14.3822L15.539 14.7299C15.4447 14.8244 15.4305 14.9726 15.5052 15.0832C15.7181 15.3983 15.8625 15.7467 15.9345 16.1194C15.9598 16.2506 16.0744 16.3454 16.2081 16.3454H16.7V16.9644ZM13.1766 14.6537C12.0732 14.6537 11.1754 15.5513 11.1754 16.6551C11.1754 17.7585 12.0732 18.6559 13.1766 18.6559C14.2802 18.6559 15.1776 17.7585 15.1776 16.6551C15.1774 15.5513 14.2802 14.6537 13.1766 14.6537ZM13.1766 18.0989C12.3806 18.0989 11.7327 17.4513 11.7327 16.6551C11.7327 15.8591 12.3806 15.2111 13.1766 15.2111C13.9728 15.2111 14.6206 15.8591 14.6206 16.6551C14.6204 17.4513 13.9728 18.0989 13.1766 18.0989Z" fill="#353535"/>
</svg>
