<svg xmlns="http://www.w3.org/2000/svg" width="20" height="20" viewBox="0 0 20 20" fill="none">
  <path d="M10.0002 19.7916C5.29183 19.7916 1.4585 15.9583 1.4585 11.2499C1.4585 6.54159 5.29183 2.70825 10.0002 2.70825C14.7085 2.70825 18.5418 6.54159 18.5418 11.2499C18.5418 15.9583 14.7085 19.7916 10.0002 19.7916ZM10.0002 3.54159C5.75016 3.54159 2.29183 6.99992 2.29183 11.2499C2.29183 15.4999 5.75016 18.9583 10.0002 18.9583C14.2502 18.9583 17.7085 15.4999 17.7085 11.2499C17.7085 6.99992 14.2502 3.54159 10.0002 3.54159Z" fill="#74BC1F"/>
  <path d="M10.4168 0.625H9.5835V3.125H10.4168V0.625Z" fill="#74BC1F"/>
  <path d="M11.25 0.208252H8.75V1.04159H11.25V0.208252Z" fill="#74BC1F"/>
  <path d="M9.99984 12.7083C9.62484 12.7083 9.24984 12.5416 8.95817 12.2916C8.6665 11.9999 8.5415 11.6666 8.5415 11.2499C8.5415 10.8333 8.70817 10.4999 8.95817 10.2083C9.49984 9.66659 10.4582 9.66659 10.9998 10.2083C11.2915 10.4999 11.4165 10.8333 11.4165 11.2499C11.4165 11.6666 11.2498 11.9999 10.9998 12.2916C10.7498 12.5416 10.3748 12.7083 9.99984 12.7083ZM9.99984 10.6249C9.83317 10.6249 9.6665 10.7083 9.5415 10.7916C9.4165 10.8749 9.37484 11.0833 9.37484 11.2499C9.37484 11.4166 9.45817 11.5833 9.5415 11.7083C9.7915 11.9583 10.2082 11.9583 10.4165 11.7083C10.5415 11.5833 10.5832 11.4166 10.5832 11.2499C10.5832 11.0833 10.4998 10.9166 10.4165 10.7916C10.3332 10.7083 10.1665 10.6249 9.99984 10.6249Z" fill="#74BC1F"/>
  <path d="M14.3671 7.49234L13.7778 6.90308L10.4485 10.2323L11.0377 10.8216L14.3671 7.49234Z" fill="#74BC1F"/>
  <path d="M10.4168 4.375H9.5835V5.20833H10.4168V4.375Z" fill="#74BC1F"/>
  <path d="M10.4168 17.2917H9.5835V18.1251H10.4168V17.2917Z" fill="#74BC1F"/>
  <path d="M3.95833 10.8333H3.125V11.6666H3.95833V10.8333Z" fill="#74BC1F"/>
  <path d="M16.8748 10.8333H16.0415V11.6666H16.8748V10.8333Z" fill="#74BC1F"/>
</svg>