<svg width="60" height="60" viewBox="0 0 60 60" fill="none" xmlns="http://www.w3.org/2000/svg">
<g clip-path="url(#clip0_204_3116)">
<path d="M35 20H11.6667C11.2246 20 10.8007 19.8244 10.4882 19.5118C10.1756 19.1993 10 18.7754 10 18.3333V11.6667C10 11.2246 10.1756 10.8007 10.4882 10.4882C10.8007 10.1756 11.2246 10 11.6667 10H35C35.442 10 35.866 10.1756 36.1785 10.4882C36.4911 10.8007 36.6667 11.2246 36.6667 11.6667V18.3333C36.6667 18.7754 36.4911 19.1993 36.1785 19.5118C35.866 19.8244 35.442 20 35 20ZM13.3333 16.6667H33.3333V13.2333H13.3333V16.6667Z" fill="#33694B"/>
<path d="M35 23.4668H11.6667C11.2246 23.4668 10.8007 23.6424 10.4882 23.955C10.1756 24.2675 10 24.6914 10 25.1335V31.6668C10 32.1088 10.1756 32.5327 10.4882 32.8453C10.8007 33.1579 11.2246 33.3335 11.6667 33.3335H30.6L36.6667 27.1668V25.1335C36.6667 24.6914 36.4911 24.2675 36.1785 23.955C35.866 23.6424 35.442 23.4668 35 23.4668ZM33.3333 30.0001H13.3333V26.6668H33.3333V30.0001Z" fill="#33694B"/>
<path d="M18.433 52.5168V52.4168L18.9663 50.1002H6.66634V6.66683H39.9997V23.7502L43.333 20.6002V5.00016C43.333 4.55814 43.1574 4.13421 42.8449 3.82165C42.5323 3.50909 42.1084 3.3335 41.6663 3.3335H4.99967C4.55765 3.3335 4.13372 3.50909 3.82116 3.82165C3.5086 4.13421 3.33301 4.55814 3.33301 5.00016V51.6668C3.33301 52.1089 3.5086 52.5328 3.82116 52.8453C4.13372 53.1579 4.55765 53.3335 4.99967 53.3335H18.333C18.3467 53.0592 18.3802 52.7863 18.433 52.5168Z" fill="#33694B"/>
<path d="M36.6662 31.9497L35.3662 33.2664C35.6887 33.1999 35.9843 33.0393 36.2157 32.805C36.4471 32.5707 36.6038 32.2731 36.6662 31.9497Z" fill="#33694B"/>
<path d="M10 44.8998C10 45.3419 10.1756 45.7658 10.4882 46.0783C10.8007 46.3909 11.2246 46.5665 11.6667 46.5665H19.7333L20.2333 44.3998L20.45 43.4832V43.3998H13.3333V39.9998H23.9L27.2333 36.6665H11.6667C11.2246 36.6665 10.8007 36.8421 10.4882 37.1547C10.1756 37.4672 10 37.8911 10 38.3332V44.8998Z" fill="#33694B"/>
<path d="M55.8164 27.7836L50.1997 22.1669C49.9505 21.917 49.6543 21.7187 49.3283 21.5834C49.0023 21.4481 48.6527 21.3784 48.2997 21.3784C47.9467 21.3784 47.5972 21.4481 47.2712 21.5834C46.9451 21.7187 46.649 21.917 46.3997 22.1669L23.5497 45.1503L21.6664 53.1669C21.5959 53.5128 21.5943 53.8692 21.6617 54.2156C21.7292 54.5621 21.8643 54.8918 22.0594 55.186C22.2544 55.4802 22.5056 55.7329 22.7985 55.9299C23.0915 56.1268 23.4204 56.264 23.7664 56.3336C23.9382 56.3509 24.1113 56.3509 24.2831 56.3336C24.4873 56.3669 24.6955 56.3669 24.8997 56.3336L32.9831 54.5503L55.8164 31.6669C56.0658 31.4191 56.2638 31.1244 56.3989 30.7997C56.534 30.4751 56.6035 30.1269 56.6035 29.7753C56.6035 29.4236 56.534 29.0755 56.3989 28.7508C56.2638 28.4262 56.0658 28.1315 55.8164 27.8836V27.7836ZM31.2831 51.5169L25.1831 52.8669L26.6664 46.8169L43.7997 29.5003L48.4997 34.2003L31.2831 51.5169ZM50.3831 32.3169L45.6831 27.6169L48.3331 25.0003L53.0664 29.7336L50.3831 32.3169Z" fill="#33694B"/>
</g>
<defs>
<clipPath id="clip0_204_3116">
<rect width="60" height="60" fill="white"/>
</clipPath>
</defs>
</svg>
