<svg width="30" height="30" viewBox="0 0 30 30" fill="none" xmlns="http://www.w3.org/2000/svg">
<g clip-path="url(#clip0_204_3105)">
<path d="M17.5 10H5.83333C5.61232 10 5.40036 9.9122 5.24408 9.75592C5.0878 9.59964 5 9.38768 5 9.16667V5.83333C5 5.61232 5.0878 5.40036 5.24408 5.24408C5.40036 5.0878 5.61232 5 5.83333 5H17.5C17.721 5 17.933 5.0878 18.0893 5.24408C18.2455 5.40036 18.3333 5.61232 18.3333 5.83333V9.16667C18.3333 9.38768 18.2455 9.59964 18.0893 9.75592C17.933 9.9122 17.721 10 17.5 10ZM6.66667 8.33333H16.6667V6.61667H6.66667V8.33333Z" fill="#404040"/>
<path d="M17.5 11.7334H5.83333C5.61232 11.7334 5.40036 11.8212 5.24408 11.9775C5.0878 12.1338 5 12.3457 5 12.5667V15.8334C5 16.0544 5.0878 16.2664 5.24408 16.4227C5.40036 16.5789 5.61232 16.6667 5.83333 16.6667H15.3L18.3333 13.5834V12.5667C18.3333 12.3457 18.2455 12.1338 18.0893 11.9775C17.933 11.8212 17.721 11.7334 17.5 11.7334ZM16.6667 15.0001H6.66667V13.3334H16.6667V15.0001Z" fill="#404040"/>
<path d="M9.21699 26.2582V26.2082L9.48366 25.0498H3.33366V3.33317H20.0003V11.8748L21.667 10.2998V2.49984C21.667 2.27882 21.5792 2.06686 21.4229 1.91058C21.2666 1.7543 21.0547 1.6665 20.8337 1.6665H2.50033C2.27931 1.6665 2.06735 1.7543 1.91107 1.91058C1.75479 2.06686 1.66699 2.27882 1.66699 2.49984V25.8332C1.66699 26.0542 1.75479 26.2661 1.91107 26.4224C2.06735 26.5787 2.27931 26.6665 2.50033 26.6665H9.16699C9.17386 26.5294 9.19057 26.3929 9.21699 26.2582Z" fill="#404040"/>
<path d="M18.3336 15.9751L17.6836 16.6334C17.8449 16.6002 17.9927 16.5199 18.1083 16.4027C18.224 16.2856 18.3024 16.1368 18.3336 15.9751Z" fill="#404040"/>
<path d="M5 22.4502C5 22.6712 5.0878 22.8831 5.24408 23.0394C5.40036 23.1957 5.61232 23.2835 5.83333 23.2835H9.86667L10.1167 22.2002L10.225 21.7418V21.7002H6.66667V20.0002H11.95L13.6167 18.3335H5.83333C5.61232 18.3335 5.40036 18.4213 5.24408 18.5776C5.0878 18.7339 5 18.9458 5 19.1668V22.4502Z" fill="#404040"/>
<path d="M27.9087 13.8916L25.1004 11.0832C24.9757 10.9583 24.8277 10.8591 24.6646 10.7914C24.5016 10.7238 24.3268 10.689 24.1503 10.689C23.9739 10.689 23.7991 10.7238 23.6361 10.7914C23.4731 10.8591 23.325 10.9583 23.2004 11.0832L11.7754 22.5749L10.8337 26.5832C10.7984 26.7562 10.7976 26.9343 10.8314 27.1076C10.8651 27.2808 10.9326 27.4457 11.0302 27.5928C11.1277 27.7398 11.2533 27.8662 11.3998 27.9647C11.5462 28.0632 11.7107 28.1318 11.8837 28.1666C11.9696 28.1752 12.0561 28.1752 12.142 28.1666C12.2441 28.1832 12.3482 28.1832 12.4504 28.1666L16.492 27.2749L27.9087 15.8332C28.0334 15.7093 28.1324 15.5619 28.1999 15.3996C28.2675 15.2373 28.3022 15.0632 28.3022 14.8874C28.3022 14.7116 28.2675 14.5375 28.1999 14.3752C28.1324 14.2128 28.0334 14.0655 27.9087 13.9416V13.8916ZM15.642 25.7582L12.592 26.4332L13.3337 23.4082L21.9004 14.7499L24.2503 17.0999L15.642 25.7582ZM25.192 16.1582L22.842 13.8082L24.167 12.4999L26.5337 14.8666L25.192 16.1582Z" fill="#404040"/>
</g>
<defs>
<clipPath id="clip0_204_3105">
<rect width="30" height="30" fill="white"/>
</clipPath>
</defs>
</svg>
