<svg xmlns="http://www.w3.org/2000/svg" width="20" height="20" viewBox="0 0 20 20" fill="none">
  <g clip-path="url(#clip0_151_117)">
    <path d="M13.4375 17.7031C12.8984 18.2422 12.0313 18.2422 11.4922 17.7031C10.9531 17.1641 10.9531 16.2969 11.4922 15.7578L13.0469 14.2031C13.5859 13.6641 14.4531 13.6641 14.9922 14.2031C15.0469 14.2578 15.0859 14.3125 15.1328 14.3672C15.5312 14.4375 15.9375 14.3984 16.3203 14.2656C16.2031 13.9609 16.0156 13.6719 15.7734 13.4297C14.8047 12.4609 13.2422 12.4609 12.2734 13.4297L10.7187 14.9844C9.75 15.9531 9.75 17.5156 10.7187 18.4844C11.6875 19.4531 13.25 19.4531 14.2188 18.4844L15.4219 17.2813C14.9688 17.2656 14.5234 17.1953 14.0859 17.0625L13.4375 17.7031Z" fill="#276141"/>
    <path d="M3.08594 6.54688C3.08594 9.72656 5.66406 12.3047 8.85156 12.3047C12.0312 12.3047 14.6094 9.72656 14.6094 6.54688C14.6094 3.36719 12.0312 0.78125 8.85156 0.78125C5.66406 0.78125 3.08594 3.35938 3.08594 6.54688Z" fill="#276141"/>
    <path d="M8.84375 13.4531C7.36719 13.4531 6.00781 12.9844 4.88281 12.1953C2.4375 13.5781 0.78125 16.2031 0.78125 19.2188H9.60157C8.34375 17.6484 8.53125 15.2891 9.90625 13.375C9.5625 13.4297 9.21094 13.4531 8.84375 13.4531Z" fill="#276141"/>
    <path d="M18.4922 10.7031C17.5234 9.73437 15.9609 9.73437 14.9922 10.7031L13.7891 11.9063C14.2422 11.9219 14.6875 11.9922 15.125 12.125L15.7656 11.4844C16.3047 10.9453 17.1719 10.9453 17.7109 11.4844C18.25 12.0234 18.25 12.8906 17.7109 13.4297L16.1563 14.9844C15.6172 15.5234 14.75 15.5234 14.2109 14.9844C14.1563 14.9297 14.1172 14.875 14.0703 14.8203C13.6719 14.75 13.2656 14.7891 12.8828 14.9219C13 15.2266 13.1875 15.5156 13.4297 15.7578C14.3984 16.7266 15.9609 16.7266 16.9297 15.7578L18.4844 14.2031C19.4609 13.2422 19.4609 11.6719 18.4922 10.7031Z" fill="#276141"/>
  </g>
  <defs>
    <clipPath id="clip0_151_117">
      <rect width="20" height="20" fill="white"/>
    </clipPath>
  </defs>
</svg>